# 3ds Max Wavefront OBJ Exporter v0.97b - (c)2007 guruware
# File Created: 27.08.2015 03:22:35

mtllib alley_flat_seg.mtl

#
# object Plane001
#

v  -4.00000 0.00000 -32.00000
v  4.00000 0.00000 -32.00000
v  2.50000 -0.00000 -32.00000
v  2.50000 0.00000 32.00000
v  -2.50000 0.00000 32.00000
v  -2.50000 -0.00000 -32.00000
v  4.00000 0.00000 32.00000
v  -4.00000 0.00000 32.00000
v  4.50000 -1.05500 32.00000
v  -4.50000 -1.05500 32.00000
v  4.50000 -1.05500 -32.00000
v  -4.50000 -1.05500 -32.00000
v  0.00000 -0.00000 -32.00000
v  0.00000 -0.00000 32.00000
v  2.50000 -0.00000 -29.33333
v  2.50000 -0.00000 -26.66667
v  2.50000 0.00000 -24.00000
v  2.50000 0.00000 -21.33333
v  2.50000 0.00000 -18.66667
v  2.50000 0.00000 -16.00000
v  2.50000 0.00000 -13.33333
v  2.50000 0.00000 -10.66667
v  2.50000 0.00000 -8.00000
v  2.50000 0.00000 -5.33333
v  2.50000 0.00000 -2.66667
v  2.50000 0.00000 -0.00000
v  2.50000 0.00000 2.66666
v  2.50000 0.00000 5.33334
v  2.50000 0.00000 8.00000
v  2.50000 0.00000 10.66666
v  2.50000 0.00000 13.33334
v  2.50000 0.00000 16.00000
v  2.50000 0.00000 18.66666
v  2.50000 0.00000 21.33334
v  2.50000 0.00000 24.00000
v  2.50000 0.00000 26.66666
v  2.50000 0.00000 29.33334
v  4.00000 0.00000 29.33333
v  4.00000 0.00000 26.66667
v  4.00000 0.00000 24.00000
v  4.00000 0.00000 21.33333
v  4.00000 0.00000 18.66667
v  4.00000 0.00000 16.00000
v  4.00000 0.00000 13.33333
v  4.00000 0.00000 10.66667
v  4.00000 0.00000 8.00000
v  4.00000 0.00000 5.33333
v  4.00000 0.00000 2.66667
v  4.00000 0.00000 -0.00000
v  4.00000 0.00000 -2.66666
v  4.00000 0.00000 -5.33334
v  4.00000 0.00000 -8.00000
v  4.00000 0.00000 -10.66666
v  4.00000 0.00000 -13.33334
v  4.00000 0.00000 -16.00000
v  4.00000 0.00000 -18.66666
v  4.00000 0.00000 -21.33334
v  4.00000 0.00000 -24.00000
v  4.00000 0.00000 -26.66666
v  4.00000 0.00000 -29.33334
v  -4.00000 0.00000 -29.33333
v  -4.00000 0.00000 -26.66667
v  -4.00000 0.00000 -24.00000
v  -4.00000 0.00000 -21.33333
v  -4.00000 0.00000 -18.66667
v  -4.00000 0.00000 -16.00000
v  -4.00000 0.00000 -13.33333
v  -4.00000 0.00000 -10.66667
v  -4.00000 0.00000 -8.00000
v  -4.00000 0.00000 -5.33333
v  -4.00000 0.00000 -2.66667
v  -4.00000 0.00000 -0.00000
v  -4.00000 0.00000 2.66666
v  -4.00000 0.00000 5.33334
v  -4.00000 0.00000 8.00000
v  -4.00000 0.00000 10.66666
v  -4.00000 0.00000 13.33334
v  -4.00000 0.00000 16.00000
v  -4.00000 0.00000 18.66666
v  -4.00000 0.00000 21.33334
v  -4.00000 0.00000 24.00000
v  -4.00000 0.00000 26.66666
v  -4.00000 0.00000 29.33334
v  -2.50000 0.00000 29.33333
v  -2.50000 0.00000 26.66667
v  -2.50000 0.00000 24.00000
v  -2.50000 0.00000 21.33333
v  -2.50000 0.00000 18.66667
v  -2.50000 0.00000 16.00000
v  -2.50000 0.00000 13.33333
v  -2.50000 0.00000 10.66667
v  -2.50000 0.00000 8.00000
v  -2.50000 0.00000 5.33333
v  -2.50000 0.00000 2.66667
v  -2.50000 0.00000 -0.00000
v  -2.50000 0.00000 -2.66666
v  -2.50000 0.00000 -5.33334
v  -2.50000 0.00000 -8.00000
v  -2.50000 0.00000 -10.66666
v  -2.50000 0.00000 -13.33334
v  -2.50000 0.00000 -16.00000
v  -2.50000 0.00000 -18.66666
v  -2.50000 0.00000 -21.33334
v  -2.50000 0.00000 -24.00000
v  -2.50000 -0.00000 -26.66666
v  -2.50000 -0.00000 -29.33334
v  0.00000 -0.00000 29.33333
v  0.00000 -0.00000 26.66667
v  0.00000 -0.00000 24.00000
v  0.00000 -0.00000 21.33333
v  0.00000 -0.00000 18.66667
v  0.00000 -0.00000 16.00000
v  0.00000 -0.00000 13.33333
v  0.00000 -0.00000 10.66667
v  0.00000 -0.00000 8.00000
v  0.00000 -0.00000 5.33333
v  0.00000 -0.00000 2.66667
v  0.00000 -0.00000 -0.00000
v  0.00000 -0.00000 -2.66666
v  0.00000 -0.00000 -5.33334
v  0.00000 -0.00000 -8.00000
v  0.00000 -0.00000 -10.66666
v  0.00000 -0.00000 -13.33334
v  0.00000 -0.00000 -16.00000
v  0.00000 -0.00000 -18.66666
v  0.00000 -0.00000 -21.33334
v  0.00000 -0.00000 -24.00000
v  0.00000 -0.00000 -26.66666
v  0.00000 -0.00000 -29.33334
v  4.50000 -1.05500 29.33333
v  4.50000 -1.05500 26.66667
v  4.50000 -1.05500 24.00000
v  4.50000 -1.05500 21.33333
v  4.50000 -1.05500 18.66667
v  4.50000 -1.05500 16.00000
v  4.50000 -1.05500 13.33333
v  4.50000 -1.05500 10.66667
v  4.50000 -1.05500 8.00000
v  4.50000 -1.05500 5.33333
v  4.50000 -1.05500 2.66667
v  4.50000 -1.05500 -0.00000
v  4.50000 -1.05500 -2.66666
v  4.50000 -1.05500 -5.33334
v  4.50000 -1.05500 -8.00000
v  4.50000 -1.05500 -10.66666
v  4.50000 -1.05500 -13.33334
v  4.50000 -1.05500 -16.00000
v  4.50000 -1.05500 -18.66666
v  4.50000 -1.05500 -21.33334
v  4.50000 -1.05500 -24.00000
v  4.50000 -1.05500 -26.66666
v  4.50000 -1.05500 -29.33334
v  -4.50000 -1.05500 -29.33333
v  -4.50000 -1.05500 -26.66667
v  -4.50000 -1.05500 -24.00000
v  -4.50000 -1.05500 -21.33333
v  -4.50000 -1.05500 -18.66667
v  -4.50000 -1.05500 -16.00000
v  -4.50000 -1.05500 -13.33333
v  -4.50000 -1.05500 -10.66667
v  -4.50000 -1.05500 -8.00000
v  -4.50000 -1.05500 -5.33333
v  -4.50000 -1.05500 -2.66667
v  -4.50000 -1.05500 -0.00000
v  -4.50000 -1.05500 2.66666
v  -4.50000 -1.05500 5.33334
v  -4.50000 -1.05500 8.00000
v  -4.50000 -1.05500 10.66666
v  -4.50000 -1.05500 13.33334
v  -4.50000 -1.05500 16.00000
v  -4.50000 -1.05500 18.66666
v  -4.50000 -1.05500 21.33334
v  -4.50000 -1.05500 24.00000
v  -4.50000 -1.05500 26.66666
v  -4.50000 -1.05500 29.33334
# 175 vertices

vn 0.00000 1.00000 -0.00000
vn -0.00000 1.00000 -0.00000
vn 0.90365 0.42827 -0.00000
vn -0.90365 0.42827 -0.00000
# 4 vertex normals

vt 0.61719 0.68750 0.00000
vt 0.75000 0.75000 0.00000
vt 0.77083 0.77083 0.00000
vt 0.62695 0.70313 0.00000
vt 0.25000 0.75000 0.00000
vt 0.43750 0.75000 0.00000
vt 0.41667 0.77083 0.00000
vt 0.22917 0.77083 0.00000
vt 0.50000 0.50000 0.00000
vt 0.18750 0.37500 0.00000
vt 0.18750 0.34375 0.00000
vt 0.50000 0.45833 0.00000
vt 0.81250 0.37500 0.00000
vt 0.81250 0.40625 0.00000
vt 0.50000 0.54167 0.00000
vt 1.00000 0.50000 0.00000
vt 0.72917 0.72917 0.00000
vt 1.00000 0.45833 0.00000
vt 0.00000 0.50000 0.00000
vt 0.00000 0.45833 0.00000
vt 0.27083 0.72917 0.00000
vt 0.52083 0.52083 0.00000
vt 0.50977 0.51563 0.00000
vt 0.54167 0.54167 0.00000
vt 0.51953 0.53125 0.00000
vt 0.56250 0.56250 0.00000
vt 0.52930 0.54688 0.00000
vt 0.58333 0.58333 0.00000
vt 0.53906 0.56250 0.00000
vt 0.60417 0.60417 0.00000
vt 0.54883 0.57813 0.00000
vt 0.62500 0.62500 0.00000
vt 0.55859 0.59375 0.00000
vt 0.64583 0.64583 0.00000
vt 0.56836 0.60938 0.00000
vt 0.66667 0.66667 0.00000
vt 0.57813 0.62500 0.00000
vt 0.68750 0.68750 0.00000
vt 0.58789 0.64063 0.00000
vt 0.70833 0.70833 0.00000
vt 0.59766 0.65625 0.00000
vt 0.60742 0.67188 0.00000
vt 1.00000 1.00000 0.00000
vt 0.73438 0.87500 0.00000
vt 0.72461 0.85938 0.00000
vt 0.97917 0.97917 0.00000
vt 0.71484 0.84375 0.00000
vt 0.95833 0.95833 0.00000
vt 0.70508 0.82813 0.00000
vt 0.93750 0.93750 0.00000
vt 0.69531 0.81250 0.00000
vt 0.91667 0.91667 0.00000
vt 0.68555 0.79688 0.00000
vt 0.89583 0.89583 0.00000
vt 0.67578 0.78125 0.00000
vt 0.87500 0.87500 0.00000
vt 0.66602 0.76563 0.00000
vt 0.85417 0.85417 0.00000
vt 0.65625 0.75000 0.00000
vt 0.83333 0.83333 0.00000
vt 0.64648 0.73438 0.00000
vt 0.81250 0.81250 0.00000
vt 0.63672 0.71875 0.00000
vt 0.79167 0.79167 0.00000
vt 0.68750 0.50000 0.00000
vt 0.66667 0.52083 0.00000
vt 0.47917 0.52083 0.00000
vt 0.64583 0.54167 0.00000
vt 0.45833 0.54167 0.00000
vt 0.62500 0.56250 0.00000
vt 0.43750 0.56250 0.00000
vt 0.60417 0.58333 0.00000
vt 0.41667 0.58333 0.00000
vt 0.58333 0.60417 0.00000
vt 0.39583 0.60417 0.00000
vt 0.56250 0.62500 0.00000
vt 0.37500 0.62500 0.00000
vt 0.54167 0.64583 0.00000
vt 0.35417 0.64583 0.00000
vt 0.52083 0.66667 0.00000
vt 0.33333 0.66667 0.00000
vt 0.50000 0.68750 0.00000
vt 0.31250 0.68750 0.00000
vt 0.47917 0.70833 0.00000
vt 0.29167 0.70833 0.00000
vt 0.45833 0.72917 0.00000
vt 0.18750 1.00000 0.00000
vt 0.00000 1.00000 0.00000
vt 0.02083 0.97917 0.00000
vt 0.20833 0.97917 0.00000
vt 0.04167 0.95833 0.00000
vt 0.22917 0.95833 0.00000
vt 0.06250 0.93750 0.00000
vt 0.25000 0.93750 0.00000
vt 0.08333 0.91667 0.00000
vt 0.27083 0.91667 0.00000
vt 0.10417 0.89583 0.00000
vt 0.29167 0.89583 0.00000
vt 0.12500 0.87500 0.00000
vt 0.31250 0.87500 0.00000
vt 0.14583 0.85417 0.00000
vt 0.33333 0.85417 0.00000
vt 0.16667 0.83333 0.00000
vt 0.35417 0.83333 0.00000
vt 0.18750 0.81250 0.00000
vt 0.37500 0.81250 0.00000
vt 0.20833 0.79167 0.00000
vt 0.39583 0.79167 0.00000
vt 0.50000 1.00000 0.00000
vt 0.18750 0.75000 0.00000
vt 0.18750 0.71875 0.00000
vt 0.50000 0.95833 0.00000
vt 0.18750 0.68750 0.00000
vt 0.50000 0.91667 0.00000
vt 0.18750 0.65625 0.00000
vt 0.50000 0.87500 0.00000
vt 0.18750 0.62500 0.00000
vt 0.50000 0.83333 0.00000
vt 0.18750 0.59375 0.00000
vt 0.50000 0.79167 0.00000
vt 0.18750 0.56250 0.00000
vt 0.50000 0.75000 0.00000
vt 0.18750 0.53125 0.00000
vt 0.50000 0.70833 0.00000
vt 0.18750 0.50000 0.00000
vt 0.50000 0.66667 0.00000
vt 0.18750 0.46875 0.00000
vt 0.50000 0.62500 0.00000
vt 0.18750 0.43750 0.00000
vt 0.50000 0.58333 0.00000
vt 0.18750 0.40625 0.00000
vt 0.18750 0.00000 0.00000
vt 0.50000 0.00000 0.00000
vt 0.50000 0.04167 0.00000
vt 0.18750 0.03125 0.00000
vt 0.50000 0.08333 0.00000
vt 0.18750 0.06250 0.00000
vt 0.50000 0.12500 0.00000
vt 0.18750 0.09375 0.00000
vt 0.50000 0.16667 0.00000
vt 0.18750 0.12500 0.00000
vt 0.50000 0.20833 0.00000
vt 0.18750 0.15625 0.00000
vt 0.50000 0.25000 0.00000
vt 0.18750 0.18750 0.00000
vt 0.50000 0.29167 0.00000
vt 0.18750 0.21875 0.00000
vt 0.50000 0.33333 0.00000
vt 0.18750 0.25000 0.00000
vt 0.50000 0.37500 0.00000
vt 0.18750 0.28125 0.00000
vt 0.50000 0.41667 0.00000
vt 0.18750 0.31250 0.00000
vt 0.81250 0.00000 0.00000
vt 0.81250 0.03125 0.00000
vt 0.81250 0.06250 0.00000
vt 0.81250 0.09375 0.00000
vt 0.81250 0.12500 0.00000
vt 0.81250 0.15625 0.00000
vt 0.81250 0.18750 0.00000
vt 0.81250 0.21875 0.00000
vt 0.81250 0.25000 0.00000
vt 0.81250 0.28125 0.00000
vt 0.81250 0.31250 0.00000
vt 0.81250 0.34375 0.00000
vt 0.81250 0.75000 0.00000
vt 0.81250 0.71875 0.00000
vt 0.81250 0.68750 0.00000
vt 0.81250 0.65625 0.00000
vt 0.81250 0.62500 0.00000
vt 0.81250 0.59375 0.00000
vt 0.81250 0.56250 0.00000
vt 0.81250 0.53125 0.00000
vt 0.81250 0.50000 0.00000
vt 0.81250 0.46875 0.00000
vt 0.81250 0.43750 0.00000
vt 1.00000 0.95833 0.00000
vt 1.00000 0.91667 0.00000
vt 1.00000 0.87500 0.00000
vt 1.00000 0.83333 0.00000
vt 1.00000 0.79167 0.00000
vt 1.00000 0.75000 0.00000
vt 1.00000 0.70833 0.00000
vt 1.00000 0.66667 0.00000
vt 1.00000 0.62500 0.00000
vt 1.00000 0.58333 0.00000
vt 1.00000 0.54167 0.00000
vt 1.00000 0.00000 0.00000
vt 1.00000 0.04167 0.00000
vt 1.00000 0.08333 0.00000
vt 1.00000 0.12500 0.00000
vt 1.00000 0.16667 0.00000
vt 1.00000 0.20833 0.00000
vt 1.00000 0.25000 0.00000
vt 1.00000 0.29167 0.00000
vt 1.00000 0.33333 0.00000
vt 1.00000 0.37500 0.00000
vt 1.00000 0.41667 0.00000
vt 0.00000 0.95833 0.00000
vt 0.00000 0.91667 0.00000
vt 0.00000 0.87500 0.00000
vt 0.00000 0.83333 0.00000
vt 0.00000 0.79167 0.00000
vt 0.00000 0.75000 0.00000
vt 0.00000 0.70833 0.00000
vt 0.00000 0.66667 0.00000
vt 0.00000 0.62500 0.00000
vt 0.00000 0.58333 0.00000
vt 0.00000 0.54167 0.00000
vt 0.00000 0.00000 0.00000
vt 0.00000 0.04167 0.00000
vt 0.00000 0.08333 0.00000
vt 0.00000 0.12500 0.00000
vt 0.00000 0.16667 0.00000
vt 0.00000 0.20833 0.00000
vt 0.00000 0.25000 0.00000
vt 0.00000 0.29167 0.00000
vt 0.00000 0.33333 0.00000
vt 0.00000 0.37500 0.00000
vt 0.00000 0.41667 0.00000
# 220 texture coords

g Plane001
usemtl wire_115115115
f 26/1/1 49/2/1 50/3/1 
f 50/3/1 25/4/1 26/1/1 
f 72/5/2 95/6/2 96/7/2 
f 96/7/2 71/8/2 72/5/2 
f 118/9/1 95/10/1 94/11/1 
f 94/11/1 117/12/1 118/9/1 
f 118/9/1 26/13/2 25/14/2 
f 25/14/2 119/15/1 118/9/1 
f 141/16/3 49/2/3 48/17/3 
f 48/17/3 140/18/3 141/16/3 
f 72/5/4 164/19/4 165/20/4 
f 165/20/4 73/21/4 72/5/4 
f 4/9/1 7/9/1 38/22/1 
f 38/22/1 37/23/1 4/9/1 
f 37/23/1 38/22/1 39/24/1 
f 39/24/1 36/25/1 37/23/1 
f 36/25/1 39/24/1 40/26/1 
f 40/26/1 35/27/1 36/25/1 
f 35/27/1 40/26/1 41/28/1 
f 41/28/1 34/29/1 35/27/1 
f 34/29/1 41/28/1 42/30/1 
f 42/30/1 33/31/1 34/29/1 
f 33/31/1 42/30/1 43/32/1 
f 43/32/1 32/33/1 33/31/1 
f 32/33/1 43/32/1 44/34/1 
f 44/34/1 31/35/1 32/33/1 
f 31/35/1 44/34/1 45/36/1 
f 45/36/1 30/37/1 31/35/1 
f 30/37/1 45/36/1 46/38/1 
f 46/38/1 29/39/1 30/37/1 
f 29/39/1 46/38/1 47/40/1 
f 47/40/1 28/41/1 29/39/1 
f 28/41/1 47/40/1 48/17/1 
f 48/17/1 27/42/1 28/41/1 
f 27/42/1 48/17/1 49/2/1 
f 49/2/1 26/1/1 27/42/1 
f 2/43/2 3/44/2 15/45/2 
f 15/45/2 60/46/2 2/43/2 
f 60/46/2 15/45/2 16/47/2 
f 16/47/2 59/48/2 60/46/2 
f 59/48/2 16/47/2 17/49/2 
f 17/49/1 58/50/1 59/48/1 
f 58/50/1 17/49/1 18/51/1 
f 18/51/1 57/52/1 58/50/1 
f 57/52/1 18/51/1 19/53/1 
f 19/53/1 56/54/1 57/52/1 
f 56/54/1 19/53/1 20/55/1 
f 20/55/1 55/56/1 56/54/1 
f 55/56/1 20/55/1 21/57/1 
f 21/57/1 54/58/1 55/56/1 
f 54/58/1 21/57/1 22/59/1 
f 22/59/1 53/60/1 54/58/1 
f 53/60/1 22/59/1 23/61/1 
f 23/61/1 52/62/1 53/60/1 
f 52/62/1 23/61/1 24/63/1 
f 24/63/1 51/64/1 52/62/1 
f 51/64/1 24/63/1 25/4/1 
f 25/4/1 50/3/1 51/64/1 
f 8/9/2 5/65/2 84/66/2 
f 84/66/2 83/67/2 8/9/2 
f 83/67/2 84/66/2 85/68/2 
f 85/68/2 82/69/2 83/67/2 
f 82/69/2 85/68/2 86/70/2 
f 86/70/2 81/71/2 82/69/2 
f 81/71/2 86/70/2 87/72/2 
f 87/72/2 80/73/2 81/71/2 
f 80/73/2 87/72/2 88/74/2 
f 88/74/2 79/75/2 80/73/2 
f 79/75/2 88/74/2 89/76/2 
f 89/76/2 78/77/2 79/75/2 
f 78/77/2 89/76/2 90/78/2 
f 90/78/2 77/79/2 78/77/2 
f 77/79/2 90/78/2 91/80/2 
f 91/80/2 76/81/2 77/79/2 
f 76/81/2 91/80/2 92/82/2 
f 92/82/2 75/83/2 76/81/2 
f 75/83/2 92/82/2 93/84/2 
f 93/84/2 74/85/2 75/83/2 
f 74/85/2 93/84/2 94/86/2 
f 94/86/2 73/21/2 74/85/2 
f 73/21/2 94/86/2 95/6/2 
f 95/6/2 72/5/2 73/21/2 
f 6/87/1 1/88/1 61/89/1 
f 61/89/1 106/90/1 6/87/1 
f 106/90/1 61/89/1 62/91/1 
f 62/91/1 105/92/1 106/90/1 
f 105/92/1 62/91/1 63/93/1 
f 63/93/2 104/94/2 105/92/2 
f 104/94/2 63/93/2 64/95/2 
f 64/95/2 103/96/2 104/94/2 
f 103/96/2 64/95/2 65/97/2 
f 65/97/2 102/98/2 103/96/2 
f 102/98/2 65/97/2 66/99/2 
f 66/99/2 101/100/2 102/98/2 
f 101/100/2 66/99/2 67/101/2 
f 67/101/2 100/102/2 101/100/2 
f 100/102/2 67/101/2 68/103/2 
f 68/103/2 99/104/2 100/102/2 
f 99/104/2 68/103/2 69/105/2 
f 69/105/2 98/106/2 99/104/2 
f 98/106/2 69/105/2 70/107/2 
f 70/107/2 97/108/2 98/106/2 
f 97/108/2 70/107/2 71/8/2 
f 71/8/2 96/7/2 97/108/2 
f 13/109/1 6/110/2 106/111/2 
f 106/111/2 129/112/1 13/109/1 
f 129/112/1 106/111/2 105/113/1 
f 105/113/1 128/114/1 129/112/1 
f 128/114/1 105/113/1 104/115/1 
f 104/115/1 127/116/1 128/114/1 
f 127/116/1 104/115/1 103/117/1 
f 103/117/1 126/118/1 127/116/1 
f 126/118/1 103/117/1 102/119/1 
f 102/119/1 125/120/1 126/118/1 
f 125/120/1 102/119/1 101/121/1 
f 101/121/1 124/122/1 125/120/1 
f 124/122/1 101/121/1 100/123/1 
f 100/123/1 123/124/1 124/122/1 
f 123/124/1 100/123/1 99/125/1 
f 99/125/1 122/126/1 123/124/1 
f 122/126/1 99/125/1 98/127/1 
f 98/127/1 121/128/1 122/126/1 
f 121/128/1 98/127/1 97/129/1 
f 97/129/1 120/130/1 121/128/1 
f 120/130/1 97/129/1 96/131/1 
f 96/131/1 119/15/1 120/130/1 
f 119/15/1 96/131/1 95/10/1 
f 95/10/1 118/9/1 119/15/1 
f 5/132/1 14/133/1 107/134/1 
f 107/134/1 84/135/1 5/132/1 
f 84/135/1 107/134/1 108/136/1 
f 108/136/1 85/137/1 84/135/1 
f 85/137/1 108/136/1 109/138/1 
f 109/138/1 86/139/1 85/137/1 
f 86/139/1 109/138/1 110/140/1 
f 110/140/1 87/141/1 86/139/1 
f 87/141/1 110/140/1 111/142/1 
f 111/142/1 88/143/1 87/141/1 
f 88/143/1 111/142/1 112/144/1 
f 112/144/1 89/145/1 88/143/1 
f 89/145/1 112/144/1 113/146/1 
f 113/146/1 90/147/1 89/145/1 
f 90/147/1 113/146/1 114/148/1 
f 114/148/1 91/149/1 90/147/1 
f 91/149/1 114/148/1 115/150/1 
f 115/150/1 92/151/1 91/149/1 
f 92/151/1 115/150/1 116/152/1 
f 116/152/1 93/153/1 92/151/1 
f 93/153/1 116/152/1 117/12/1 
f 117/12/1 94/11/1 93/153/1 
f 14/133/1 4/154/2 37/155/2 
f 37/155/2 107/134/1 14/133/1 
f 107/134/1 37/155/2 36/156/2 
f 36/156/2 108/136/1 107/134/1 
f 108/136/1 36/156/2 35/157/2 
f 35/157/2 109/138/1 108/136/1 
f 109/138/1 35/157/2 34/158/2 
f 34/158/2 110/140/1 109/138/1 
f 110/140/1 34/158/2 33/159/2 
f 33/159/2 111/142/1 110/140/1 
f 111/142/1 33/159/2 32/160/2 
f 32/160/2 112/144/1 111/142/1 
f 112/144/1 32/160/2 31/161/2 
f 31/161/2 113/146/1 112/144/1 
f 113/146/1 31/161/2 30/162/2 
f 30/162/2 114/148/1 113/146/1 
f 114/148/1 30/162/2 29/163/2 
f 29/163/2 115/150/1 114/148/1 
f 115/150/1 29/163/2 28/164/2 
f 28/164/2 116/152/1 115/150/1 
f 116/152/1 28/164/2 27/165/2 
f 27/165/2 117/12/1 116/152/1 
f 117/12/1 27/165/2 26/13/2 
f 26/13/2 118/9/1 117/12/1 
f 3/166/1 13/109/1 129/112/1 
f 129/112/1 15/167/2 3/166/1 
f 15/167/2 129/112/1 128/114/1 
f 128/114/1 16/168/2 15/167/2 
f 16/168/2 128/114/1 127/116/1 
f 127/116/1 17/169/2 16/168/2 
f 17/169/2 127/116/1 126/118/1 
f 126/118/1 18/170/2 17/169/2 
f 18/170/2 126/118/1 125/120/1 
f 125/120/1 19/171/2 18/170/2 
f 19/171/2 125/120/1 124/122/1 
f 124/122/1 20/172/2 19/171/2 
f 20/172/2 124/122/1 123/124/1 
f 123/124/1 21/173/2 20/172/2 
f 21/173/2 123/124/1 122/126/1 
f 122/126/1 22/174/2 21/173/2 
f 22/174/2 122/126/1 121/128/1 
f 121/128/1 23/175/2 22/174/2 
f 23/175/2 121/128/1 120/130/1 
f 120/130/1 24/176/2 23/175/2 
f 24/176/2 120/130/1 119/15/1 
f 119/15/1 25/14/2 24/176/2 
f 11/43/3 2/43/3 60/46/3 
f 60/46/3 152/177/3 11/43/3 
f 152/177/3 60/46/3 59/48/3 
f 59/48/3 151/178/3 152/177/3 
f 151/178/3 59/48/3 58/50/3 
f 58/50/3 150/179/3 151/178/3 
f 150/179/3 58/50/3 57/52/3 
f 57/52/3 149/180/3 150/179/3 
f 149/180/3 57/52/3 56/54/3 
f 56/54/3 148/181/3 149/180/3 
f 148/181/3 56/54/3 55/56/3 
f 55/56/3 147/182/3 148/181/3 
f 147/182/3 55/56/3 54/58/3 
f 54/58/3 146/183/3 147/182/3 
f 146/183/3 54/58/3 53/60/3 
f 53/60/3 145/184/3 146/183/3 
f 145/184/3 53/60/3 52/62/3 
f 52/62/3 144/185/3 145/184/3 
f 144/185/3 52/62/3 51/64/3 
f 51/64/3 143/186/3 144/185/3 
f 143/186/3 51/64/3 50/3/3 
f 50/3/3 142/187/3 143/186/3 
f 142/187/3 50/3/3 49/2/3 
f 49/2/3 141/16/3 142/187/3 
f 7/9/3 9/188/3 130/189/3 
f 130/189/3 38/22/3 7/9/3 
f 38/22/3 130/189/3 131/190/3 
f 131/190/3 39/24/3 38/22/3 
f 39/24/3 131/190/3 132/191/3 
f 132/191/3 40/26/3 39/24/3 
f 40/26/3 132/191/3 133/192/3 
f 133/192/3 41/28/3 40/26/3 
f 41/28/3 133/192/3 134/193/3 
f 134/193/3 42/30/3 41/28/3 
f 42/30/3 134/193/3 135/194/3 
f 135/194/3 43/32/3 42/30/3 
f 43/32/3 135/194/3 136/195/3 
f 136/195/3 44/34/3 43/32/3 
f 44/34/3 136/195/3 137/196/3 
f 137/196/3 45/36/3 44/34/3 
f 45/36/3 137/196/3 138/197/3 
f 138/197/3 46/38/3 45/36/3 
f 46/38/3 138/197/3 139/198/3 
f 139/198/3 47/40/3 46/38/3 
f 47/40/3 139/198/3 140/18/3 
f 140/18/3 48/17/3 47/40/3 
f 1/88/4 12/88/4 153/199/4 
f 153/199/4 61/89/4 1/88/4 
f 61/89/4 153/199/4 154/200/4 
f 154/200/4 62/91/4 61/89/4 
f 62/91/4 154/200/4 155/201/4 
f 155/201/4 63/93/4 62/91/4 
f 63/93/4 155/201/4 156/202/4 
f 156/202/4 64/95/4 63/93/4 
f 64/95/4 156/202/4 157/203/4 
f 157/203/4 65/97/4 64/95/4 
f 65/97/4 157/203/4 158/204/4 
f 158/204/4 66/99/4 65/97/4 
f 66/99/4 158/204/4 159/205/4 
f 159/205/4 67/101/4 66/99/4 
f 67/101/4 159/205/4 160/206/4 
f 160/206/4 68/103/4 67/101/4 
f 68/103/4 160/206/4 161/207/4 
f 161/207/4 69/105/4 68/103/4 
f 69/105/4 161/207/4 162/208/4 
f 162/208/4 70/107/4 69/105/4 
f 70/107/4 162/208/4 163/209/4 
f 163/209/4 71/8/4 70/107/4 
f 71/8/4 163/209/4 164/19/4 
f 164/19/4 72/5/4 71/8/4 
f 10/210/4 8/9/4 83/67/4 
f 83/67/4 175/211/4 10/210/4 
f 175/211/4 83/67/4 82/69/4 
f 82/69/4 174/212/4 175/211/4 
f 174/212/4 82/69/4 81/71/4 
f 81/71/4 173/213/4 174/212/4 
f 173/213/4 81/71/4 80/73/4 
f 80/73/4 172/214/4 173/213/4 
f 172/214/4 80/73/4 79/75/4 
f 79/75/4 171/215/4 172/214/4 
f 171/215/4 79/75/4 78/77/4 
f 78/77/4 170/216/4 171/215/4 
f 170/216/4 78/77/4 77/79/4 
f 77/79/4 169/217/4 170/216/4 
f 169/217/4 77/79/4 76/81/4 
f 76/81/4 168/218/4 169/217/4 
f 168/218/4 76/81/4 75/83/4 
f 75/83/4 167/219/4 168/218/4 
f 167/219/4 75/83/4 74/85/4 
f 74/85/4 166/220/4 167/219/4 
f 166/220/4 74/85/4 73/21/4 
f 73/21/4 165/20/4 166/220/4 
# 288 faces

