# 3ds Max Wavefront OBJ Exporter v0.97b - (c)2007 guruware
# File Created: 27.08.2015 03:23:17

mtllib alley_flat_node.mtl

#
# object Plane001
#

v  -4.00000 0.00000 -32.00000
v  4.00000 0.00000 -32.00000
v  2.50000 -0.00000 -32.00000
v  2.50000 0.00000 32.00000
v  -2.50000 0.00000 32.00000
v  -2.50000 -0.00000 -32.00000
v  4.00000 0.00000 32.00000
v  -4.00000 0.00000 32.00000
v  4.50000 -1.05500 32.00000
v  -4.50000 -1.05500 32.00000
v  4.50000 -1.05500 -32.00000
v  -4.50000 -1.05500 -32.00000
v  2.50000 -0.30000 32.00000
v  -2.50000 -0.30000 32.00000
v  0.00000 -0.00000 -32.00000
v  0.00000 -0.30000 32.00000
v  2.50000 -0.00000 -29.33333
v  2.50000 -0.00000 -26.66667
v  2.50000 -0.00000 -24.00000
v  2.50000 -0.00000 -21.33333
v  2.50000 -0.00000 -18.66667
v  2.50000 -0.00000 -16.00000
v  2.50000 -0.00000 -13.33333
v  2.50000 -0.00000 -10.66667
v  2.50000 -0.00000 -8.00000
v  2.50000 -0.00000 -5.33333
v  2.50000 -0.00000 -2.66667
v  2.50000 -0.00000 -0.00000
v  2.50000 -0.00000 2.66666
v  2.50000 0.00000 5.33334
v  2.50000 0.00000 8.00000
v  2.50000 0.00000 10.66666
v  2.50000 0.00000 13.33334
v  2.50000 0.00000 16.00000
v  2.50000 0.00000 18.66666
v  2.50000 0.00000 21.33334
v  2.50000 0.00000 24.00000
v  2.50000 0.00000 26.66666
v  2.50000 0.00000 29.33334
v  4.00000 0.00000 29.33333
v  4.00000 0.00000 26.66667
v  4.00000 0.00000 24.00000
v  4.00000 0.00000 21.33333
v  4.00000 0.00000 18.66667
v  4.00000 0.00000 16.00000
v  4.00000 0.00000 13.33333
v  4.00000 0.00000 10.66667
v  4.00000 0.00000 8.00000
v  4.00000 0.00000 5.33333
v  4.00000 0.00000 2.66667
v  4.00000 0.00000 -0.00000
v  4.00000 0.00000 -2.66666
v  4.00000 0.00000 -5.33334
v  4.00000 0.00000 -8.00000
v  4.00000 0.00000 -10.66666
v  4.00000 0.00000 -13.33334
v  4.00000 0.00000 -16.00000
v  4.00000 0.00000 -18.66666
v  4.00000 0.00000 -21.33334
v  4.00000 0.00000 -24.00000
v  4.00000 0.00000 -26.66666
v  4.00000 0.00000 -29.33334
v  -4.00000 0.00000 -29.33333
v  -4.00000 0.00000 -26.66667
v  -4.00000 0.00000 -24.00000
v  -4.00000 0.00000 -21.33333
v  -4.00000 0.00000 -18.66667
v  -4.00000 0.00000 -16.00000
v  -4.00000 0.00000 -13.33333
v  -4.00000 0.00000 -10.66667
v  -4.00000 0.00000 -8.00000
v  -4.00000 0.00000 -5.33333
v  -4.00000 0.00000 -2.66667
v  -4.00000 0.00000 -0.00000
v  -4.00000 0.00000 2.66666
v  -4.00000 0.00000 5.33334
v  -4.00000 0.00000 8.00000
v  -4.00000 0.00000 10.66666
v  -4.00000 0.00000 13.33334
v  -4.00000 0.00000 16.00000
v  -4.00000 0.00000 18.66666
v  -4.00000 0.00000 21.33334
v  -4.00000 0.00000 24.00000
v  -4.00000 0.00000 26.66666
v  -4.00000 0.00000 29.33334
v  -2.50000 0.00000 29.33333
v  -2.50000 0.00000 26.66667
v  -2.50000 0.00000 24.00000
v  -2.50000 0.00000 21.33333
v  -2.50000 0.00000 18.66667
v  -2.50000 0.00000 16.00000
v  -2.50000 0.00000 13.33333
v  -2.50000 0.00000 10.66667
v  -2.50000 0.00000 8.00000
v  -2.50000 0.00000 5.33333
v  -2.50000 -0.00000 2.66667
v  -2.50000 -0.00000 -0.00000
v  -2.50000 -0.00000 -2.66666
v  -2.50000 -0.00000 -5.33334
v  -2.50000 -0.00000 -8.00000
v  -2.50000 -0.00000 -10.66666
v  -2.50000 -0.00000 -13.33334
v  -2.50000 -0.00000 -16.00000
v  -2.50000 -0.00000 -18.66666
v  -2.50000 -0.00000 -21.33334
v  -2.50000 -0.00000 -24.00000
v  -2.50000 -0.00000 -26.66666
v  -2.50000 -0.00000 -29.33334
v  0.00000 -0.28750 29.33333
v  0.00000 -0.27500 26.66667
v  0.00000 -0.26250 24.00000
v  0.00000 -0.25000 21.33333
v  0.00000 -0.23750 18.66667
v  0.00000 -0.22500 16.00000
v  0.00000 -0.21250 13.33333
v  0.00000 -0.20000 10.66667
v  0.00000 -0.18750 8.00000
v  0.00000 -0.17500 5.33333
v  0.00000 -0.16250 2.66667
v  0.00000 -0.15000 -0.00000
v  0.00000 -0.13750 -2.66666
v  0.00000 -0.12500 -5.33333
v  0.00000 -0.11250 -8.00000
v  0.00000 -0.10000 -10.66667
v  0.00000 -0.08750 -13.33334
v  0.00000 -0.07500 -16.00000
v  0.00000 -0.06250 -18.66666
v  0.00000 -0.05000 -21.33333
v  0.00000 -0.03750 -24.00000
v  0.00000 -0.02500 -26.66667
v  0.00000 -0.01250 -29.33334
v  -2.50000 -0.01250 -29.33333
v  -2.50000 -0.02500 -26.66667
v  -2.50000 -0.03750 -24.00000
v  -2.50000 -0.05000 -21.33333
v  -2.50000 -0.06250 -18.66667
v  -2.50000 -0.07500 -16.00000
v  -2.50000 -0.08750 -13.33333
v  -2.50000 -0.10000 -10.66667
v  -2.50000 -0.11250 -8.00000
v  -2.50000 -0.12500 -5.33333
v  -2.50000 -0.13750 -2.66667
v  -2.50000 -0.15000 -0.00000
v  -2.50000 -0.16250 2.66666
v  -2.50000 -0.17500 5.33333
v  -2.50000 -0.18750 8.00000
v  -2.50000 -0.20000 10.66667
v  -2.50000 -0.21250 13.33334
v  -2.50000 -0.22500 16.00000
v  -2.50000 -0.23750 18.66666
v  -2.50000 -0.25000 21.33333
v  -2.50000 -0.26250 24.00000
v  -2.50000 -0.27500 26.66667
v  -2.50000 -0.28750 29.33334
v  2.50000 -0.28750 29.33333
v  2.50000 -0.27500 26.66667
v  2.50000 -0.26250 24.00000
v  2.50000 -0.25000 21.33333
v  2.50000 -0.23750 18.66667
v  2.50000 -0.22500 16.00000
v  2.50000 -0.21250 13.33333
v  2.50000 -0.20000 10.66667
v  2.50000 -0.18750 8.00000
v  2.50000 -0.17500 5.33333
v  2.50000 -0.16250 2.66667
v  2.50000 -0.15000 -0.00000
v  2.50000 -0.13750 -2.66666
v  2.50000 -0.12500 -5.33333
v  2.50000 -0.11250 -8.00000
v  2.50000 -0.10000 -10.66667
v  2.50000 -0.08750 -13.33334
v  2.50000 -0.07500 -16.00000
v  2.50000 -0.06250 -18.66666
v  2.50000 -0.05000 -21.33333
v  2.50000 -0.03750 -24.00000
v  2.50000 -0.02500 -26.66667
v  2.50000 -0.01250 -29.33334
v  4.50000 -1.05500 29.33333
v  4.50000 -1.05500 26.66667
v  4.50000 -1.05500 24.00000
v  4.50000 -1.05500 21.33333
v  4.50000 -1.05500 18.66667
v  4.50000 -1.05500 16.00000
v  4.50000 -1.05500 13.33333
v  4.50000 -1.05500 10.66667
v  4.50000 -1.05500 8.00000
v  4.50000 -1.05500 5.33333
v  4.50000 -1.05500 2.66667
v  4.50000 -1.05500 -0.00000
v  4.50000 -1.05500 -2.66666
v  4.50000 -1.05500 -5.33334
v  4.50000 -1.05500 -8.00000
v  4.50000 -1.05500 -10.66666
v  4.50000 -1.05500 -13.33334
v  4.50000 -1.05500 -16.00000
v  4.50000 -1.05500 -18.66666
v  4.50000 -1.05500 -21.33334
v  4.50000 -1.05500 -24.00000
v  4.50000 -1.05500 -26.66666
v  4.50000 -1.05500 -29.33334
v  -4.50000 -1.05500 -29.33333
v  -4.50000 -1.05500 -26.66667
v  -4.50000 -1.05500 -24.00000
v  -4.50000 -1.05500 -21.33333
v  -4.50000 -1.05500 -18.66667
v  -4.50000 -1.05500 -16.00000
v  -4.50000 -1.05500 -13.33333
v  -4.50000 -1.05500 -10.66667
v  -4.50000 -1.05500 -8.00000
v  -4.50000 -1.05500 -5.33333
v  -4.50000 -1.05500 -2.66667
v  -4.50000 -1.05500 -0.00000
v  -4.50000 -1.05500 2.66666
v  -4.50000 -1.05500 5.33334
v  -4.50000 -1.05500 8.00000
v  -4.50000 -1.05500 10.66666
v  -4.50000 -1.05500 13.33334
v  -4.50000 -1.05500 16.00000
v  -4.50000 -1.05500 18.66666
v  -4.50000 -1.05500 21.33334
v  -4.50000 -1.05500 24.00000
v  -4.50000 -1.05500 26.66666
v  -4.50000 -1.05500 29.33334
# 223 vertices

vn -0.00000 1.00000 -0.00000
vn 0.00000 1.00000 -0.00000
vn 0.00000 0.99999 0.00469
vn -0.00000 0.99999 0.00469
vn 0.90365 0.42827 -0.00000
vn -0.90365 0.42827 -0.00000
vn -1.00000 0.00000 -0.00000
vn 1.00000 0.00000 -0.00000
# 8 vertex normals

vt 0.61719 0.68750 0.00000
vt 0.75000 0.75000 0.00000
vt 0.77083 0.77083 0.00000
vt 0.62695 0.70313 0.00000
vt 0.25000 0.75000 0.00000
vt 0.43750 0.75000 0.00000
vt 0.41667 0.77083 0.00000
vt 0.22917 0.77083 0.00000
vt 0.50000 0.50000 0.00000
vt 0.18750 0.37500 0.00000
vt 0.18750 0.34375 0.00000
vt 0.50000 0.45833 0.00000
vt 0.81250 0.37500 0.00000
vt 0.81250 0.40625 0.00000
vt 0.50000 0.54167 0.00000
vt 1.00000 0.50000 0.00000
vt 0.72917 0.72917 0.00000
vt 1.00000 0.45833 0.00000
vt 0.00000 0.50000 0.00000
vt 0.00000 0.45833 0.00000
vt 0.27083 0.72917 0.00000
vt 0.18750 0.40625 0.00000
vt 0.52083 0.52083 0.00000
vt 0.50977 0.51563 0.00000
vt 0.54167 0.54167 0.00000
vt 0.51953 0.53125 0.00000
vt 0.56250 0.56250 0.00000
vt 0.52930 0.54688 0.00000
vt 0.58333 0.58333 0.00000
vt 0.53906 0.56250 0.00000
vt 0.60417 0.60417 0.00000
vt 0.54883 0.57813 0.00000
vt 0.62500 0.62500 0.00000
vt 0.55859 0.59375 0.00000
vt 0.64583 0.64583 0.00000
vt 0.56836 0.60938 0.00000
vt 0.66667 0.66667 0.00000
vt 0.57813 0.62500 0.00000
vt 0.68750 0.68750 0.00000
vt 0.58789 0.64063 0.00000
vt 0.70833 0.70833 0.00000
vt 0.59766 0.65625 0.00000
vt 0.60742 0.67188 0.00000
vt 1.00000 1.00000 0.00000
vt 0.73438 0.87500 0.00000
vt 0.72461 0.85938 0.00000
vt 0.97917 0.97917 0.00000
vt 0.71484 0.84375 0.00000
vt 0.95833 0.95833 0.00000
vt 0.70508 0.82813 0.00000
vt 0.93750 0.93750 0.00000
vt 0.69531 0.81250 0.00000
vt 0.91667 0.91667 0.00000
vt 0.68555 0.79688 0.00000
vt 0.89583 0.89583 0.00000
vt 0.67578 0.78125 0.00000
vt 0.87500 0.87500 0.00000
vt 0.66602 0.76563 0.00000
vt 0.85417 0.85417 0.00000
vt 0.65625 0.75000 0.00000
vt 0.83333 0.83333 0.00000
vt 0.64648 0.73438 0.00000
vt 0.81250 0.81250 0.00000
vt 0.63672 0.71875 0.00000
vt 0.79167 0.79167 0.00000
vt 0.68750 0.50000 0.00000
vt 0.66667 0.52083 0.00000
vt 0.47917 0.52083 0.00000
vt 0.64583 0.54167 0.00000
vt 0.45833 0.54167 0.00000
vt 0.62500 0.56250 0.00000
vt 0.43750 0.56250 0.00000
vt 0.60417 0.58333 0.00000
vt 0.41667 0.58333 0.00000
vt 0.58333 0.60417 0.00000
vt 0.39583 0.60417 0.00000
vt 0.56250 0.62500 0.00000
vt 0.37500 0.62500 0.00000
vt 0.54167 0.64583 0.00000
vt 0.35417 0.64583 0.00000
vt 0.52083 0.66667 0.00000
vt 0.33333 0.66667 0.00000
vt 0.50000 0.68750 0.00000
vt 0.31250 0.68750 0.00000
vt 0.47917 0.70833 0.00000
vt 0.29167 0.70833 0.00000
vt 0.45833 0.72917 0.00000
vt 0.18750 1.00000 0.00000
vt 0.00000 1.00000 0.00000
vt 0.02083 0.97917 0.00000
vt 0.20833 0.97917 0.00000
vt 0.04167 0.95833 0.00000
vt 0.22917 0.95833 0.00000
vt 0.06250 0.93750 0.00000
vt 0.25000 0.93750 0.00000
vt 0.08333 0.91667 0.00000
vt 0.27083 0.91667 0.00000
vt 0.10417 0.89583 0.00000
vt 0.29167 0.89583 0.00000
vt 0.12500 0.87500 0.00000
vt 0.31250 0.87500 0.00000
vt 0.14583 0.85417 0.00000
vt 0.33333 0.85417 0.00000
vt 0.16667 0.83333 0.00000
vt 0.35417 0.83333 0.00000
vt 0.18750 0.81250 0.00000
vt 0.37500 0.81250 0.00000
vt 0.20833 0.79167 0.00000
vt 0.39583 0.79167 0.00000
vt 0.50000 1.00000 0.00000
vt 0.18750 0.75000 0.00000
vt 0.18750 0.71875 0.00000
vt 0.50000 0.95833 0.00000
vt 0.18750 0.68750 0.00000
vt 0.50000 0.91667 0.00000
vt 0.18750 0.65625 0.00000
vt 0.50000 0.87500 0.00000
vt 0.18750 0.62500 0.00000
vt 0.50000 0.83333 0.00000
vt 0.18750 0.59375 0.00000
vt 0.50000 0.79167 0.00000
vt 0.18750 0.56250 0.00000
vt 0.50000 0.75000 0.00000
vt 0.18750 0.53125 0.00000
vt 0.50000 0.70833 0.00000
vt 0.18750 0.50000 0.00000
vt 0.50000 0.66667 0.00000
vt 0.18750 0.46875 0.00000
vt 0.50000 0.62500 0.00000
vt 0.18750 0.43750 0.00000
vt 0.50000 0.58333 0.00000
vt 0.18750 0.00000 0.00000
vt 0.50000 0.00000 0.00000
vt 0.50000 0.04167 0.00000
vt 0.18750 0.03125 0.00000
vt 0.50000 0.08333 0.00000
vt 0.18750 0.06250 0.00000
vt 0.50000 0.12500 0.00000
vt 0.18750 0.09375 0.00000
vt 0.50000 0.16667 0.00000
vt 0.18750 0.12500 0.00000
vt 0.50000 0.20833 0.00000
vt 0.18750 0.15625 0.00000
vt 0.50000 0.25000 0.00000
vt 0.18750 0.18750 0.00000
vt 0.50000 0.29167 0.00000
vt 0.18750 0.21875 0.00000
vt 0.50000 0.33333 0.00000
vt 0.18750 0.25000 0.00000
vt 0.50000 0.37500 0.00000
vt 0.18750 0.28125 0.00000
vt 0.50000 0.41667 0.00000
vt 0.18750 0.31250 0.00000
vt 0.81250 0.00000 0.00000
vt 0.81250 0.03125 0.00000
vt 0.81250 0.06250 0.00000
vt 0.81250 0.09375 0.00000
vt 0.81250 0.12500 0.00000
vt 0.81250 0.15625 0.00000
vt 0.81250 0.18750 0.00000
vt 0.81250 0.21875 0.00000
vt 0.81250 0.25000 0.00000
vt 0.81250 0.28125 0.00000
vt 0.81250 0.31250 0.00000
vt 0.81250 0.34375 0.00000
vt 0.81250 0.75000 0.00000
vt 0.81250 0.71875 0.00000
vt 0.81250 0.68750 0.00000
vt 0.81250 0.65625 0.00000
vt 0.81250 0.62500 0.00000
vt 0.81250 0.59375 0.00000
vt 0.81250 0.56250 0.00000
vt 0.81250 0.53125 0.00000
vt 0.81250 0.50000 0.00000
vt 0.81250 0.46875 0.00000
vt 0.81250 0.43750 0.00000
vt 1.00000 0.95833 0.00000
vt 1.00000 0.91667 0.00000
vt 1.00000 0.87500 0.00000
vt 1.00000 0.83333 0.00000
vt 1.00000 0.79167 0.00000
vt 1.00000 0.75000 0.00000
vt 1.00000 0.70833 0.00000
vt 1.00000 0.66667 0.00000
vt 1.00000 0.62500 0.00000
vt 1.00000 0.58333 0.00000
vt 1.00000 0.54167 0.00000
vt 1.00000 0.00000 0.00000
vt 1.00000 0.04167 0.00000
vt 1.00000 0.08333 0.00000
vt 1.00000 0.12500 0.00000
vt 1.00000 0.16667 0.00000
vt 1.00000 0.20833 0.00000
vt 1.00000 0.25000 0.00000
vt 1.00000 0.29167 0.00000
vt 1.00000 0.33333 0.00000
vt 1.00000 0.37500 0.00000
vt 1.00000 0.41667 0.00000
vt 0.00000 0.95833 0.00000
vt 0.00000 0.91667 0.00000
vt 0.00000 0.87500 0.00000
vt 0.00000 0.83333 0.00000
vt 0.00000 0.79167 0.00000
vt 0.00000 0.75000 0.00000
vt 0.00000 0.70833 0.00000
vt 0.00000 0.66667 0.00000
vt 0.00000 0.62500 0.00000
vt 0.00000 0.58333 0.00000
vt 0.00000 0.54167 0.00000
vt 0.00000 0.00000 0.00000
vt 0.00000 0.04167 0.00000
vt 0.00000 0.08333 0.00000
vt 0.00000 0.12500 0.00000
vt 0.00000 0.16667 0.00000
vt 0.00000 0.20833 0.00000
vt 0.00000 0.25000 0.00000
vt 0.00000 0.29167 0.00000
vt 0.00000 0.33333 0.00000
vt 0.00000 0.37500 0.00000
vt 0.00000 0.41667 0.00000
# 220 texture coords

g Plane001
usemtl wire_115115115
f 28/1/1 51/2/1 52/3/1 
f 52/3/1 27/4/1 28/1/1 
f 74/5/2 97/6/2 98/7/2 
f 98/7/2 73/8/2 74/5/2 
f 120/9/3 143/10/3 144/11/3 
f 144/11/3 119/12/3 120/9/3 
f 120/9/3 166/13/4 167/14/4 
f 167/14/4 121/15/3 120/9/3 
f 189/16/5 51/2/5 50/17/5 
f 50/17/5 188/18/5 189/16/5 
f 74/5/6 212/19/6 213/20/6 
f 213/20/6 75/21/6 74/5/6 
f 166/13/7 28/13/7 27/14/7 
f 27/14/7 167/14/7 166/13/7 
f 97/10/8 143/10/8 142/22/8 
f 142/22/8 98/22/8 97/10/8 
f 4/9/2 7/9/2 40/23/2 
f 40/23/2 39/24/2 4/9/2 
f 39/24/2 40/23/2 41/25/2 
f 41/25/2 38/26/2 39/24/2 
f 38/26/2 41/25/2 42/27/2 
f 42/27/2 37/28/2 38/26/2 
f 37/28/2 42/27/2 43/29/2 
f 43/29/2 36/30/2 37/28/2 
f 36/30/2 43/29/2 44/31/2 
f 44/31/2 35/32/2 36/30/2 
f 35/32/2 44/31/2 45/33/2 
f 45/33/2 34/34/2 35/32/2 
f 34/34/2 45/33/2 46/35/2 
f 46/35/2 33/36/2 34/34/2 
f 33/36/2 46/35/2 47/37/2 
f 47/37/2 32/38/2 33/36/2 
f 32/38/2 47/37/2 48/39/2 
f 48/39/2 31/40/2 32/38/2 
f 31/40/2 48/39/2 49/41/2 
f 49/41/2 30/42/2 31/40/2 
f 30/42/2 49/41/2 50/17/2 
f 50/17/1 29/43/1 30/42/1 
f 29/43/1 50/17/1 51/2/1 
f 51/2/1 28/1/1 29/43/1 
f 2/44/1 3/45/1 17/46/1 
f 17/46/1 62/47/1 2/44/1 
f 62/47/1 17/46/1 18/48/1 
f 18/48/1 61/49/1 62/47/1 
f 61/49/1 18/48/1 19/50/1 
f 19/50/1 60/51/1 61/49/1 
f 60/51/1 19/50/1 20/52/1 
f 20/52/1 59/53/1 60/51/1 
f 59/53/1 20/52/1 21/54/1 
f 21/54/1 58/55/1 59/53/1 
f 58/55/1 21/54/1 22/56/1 
f 22/56/1 57/57/1 58/55/1 
f 57/57/1 22/56/1 23/58/1 
f 23/58/1 56/59/1 57/57/1 
f 56/59/1 23/58/1 24/60/1 
f 24/60/1 55/61/1 56/59/1 
f 55/61/1 24/60/1 25/62/1 
f 25/62/1 54/63/1 55/61/1 
f 54/63/1 25/62/1 26/64/1 
f 26/64/1 53/65/1 54/63/1 
f 53/65/1 26/64/1 27/4/1 
f 27/4/1 52/3/1 53/65/1 
f 8/9/1 5/66/1 86/67/1 
f 86/67/1 85/68/1 8/9/1 
f 85/68/1 86/67/1 87/69/1 
f 87/69/1 84/70/1 85/68/1 
f 84/70/1 87/69/1 88/71/1 
f 88/71/1 83/72/1 84/70/1 
f 83/72/1 88/71/1 89/73/1 
f 89/73/1 82/74/1 83/72/1 
f 82/74/1 89/73/1 90/75/1 
f 90/75/1 81/76/1 82/74/1 
f 81/76/1 90/75/1 91/77/1 
f 91/77/1 80/78/1 81/76/1 
f 80/78/1 91/77/1 92/79/1 
f 92/79/1 79/80/1 80/78/1 
f 79/80/1 92/79/1 93/81/1 
f 93/81/1 78/82/1 79/80/1 
f 78/82/1 93/81/1 94/83/1 
f 94/83/1 77/84/1 78/82/1 
f 77/84/1 94/83/1 95/85/1 
f 95/85/1 76/86/1 77/84/1 
f 76/86/1 95/85/1 96/87/1 
f 96/87/2 75/21/2 76/86/2 
f 75/21/2 96/87/2 97/6/2 
f 97/6/2 74/5/2 75/21/2 
f 6/88/2 1/89/2 63/90/2 
f 63/90/2 108/91/2 6/88/2 
f 108/91/2 63/90/2 64/92/2 
f 64/92/2 107/93/2 108/91/2 
f 107/93/2 64/92/2 65/94/2 
f 65/94/2 106/95/2 107/93/2 
f 106/95/2 65/94/2 66/96/2 
f 66/96/2 105/97/2 106/95/2 
f 105/97/2 66/96/2 67/98/2 
f 67/98/2 104/99/2 105/97/2 
f 104/99/2 67/98/2 68/100/2 
f 68/100/2 103/101/2 104/99/2 
f 103/101/2 68/100/2 69/102/2 
f 69/102/2 102/103/2 103/101/2 
f 102/103/2 69/102/2 70/104/2 
f 70/104/2 101/105/2 102/103/2 
f 101/105/2 70/104/2 71/106/2 
f 71/106/2 100/107/2 101/105/2 
f 100/107/2 71/106/2 72/108/2 
f 72/108/2 99/109/2 100/107/2 
f 99/109/2 72/108/2 73/8/2 
f 73/8/2 98/7/2 99/109/2 
f 15/110/3 6/111/3 132/112/3 
f 132/112/3 131/113/3 15/110/3 
f 131/113/3 132/112/3 133/114/3 
f 133/114/3 130/115/3 131/113/3 
f 130/115/3 133/114/3 134/116/3 
f 134/116/3 129/117/3 130/115/3 
f 129/117/3 134/116/3 135/118/3 
f 135/118/3 128/119/3 129/117/3 
f 128/119/3 135/118/3 136/120/3 
f 136/120/3 127/121/3 128/119/3 
f 127/121/3 136/120/3 137/122/3 
f 137/122/3 126/123/3 127/121/3 
f 126/123/3 137/122/3 138/124/3 
f 138/124/3 125/125/3 126/123/3 
f 125/125/3 138/124/3 139/126/3 
f 139/126/3 124/127/3 125/125/3 
f 124/127/3 139/126/3 140/128/3 
f 140/128/3 123/129/3 124/127/3 
f 123/129/3 140/128/3 141/130/3 
f 141/130/3 122/131/3 123/129/3 
f 122/131/3 141/130/3 142/22/3 
f 142/22/3 121/15/3 122/131/3 
f 121/15/3 142/22/3 143/10/3 
f 143/10/3 120/9/3 121/15/3 
f 14/132/3 16/133/4 109/134/3 
f 109/134/3 154/135/3 14/132/3 
f 154/135/3 109/134/3 110/136/3 
f 110/136/3 153/137/3 154/135/3 
f 153/137/3 110/136/3 111/138/3 
f 111/138/3 152/139/3 153/137/3 
f 152/139/3 111/138/3 112/140/3 
f 112/140/3 151/141/3 152/139/3 
f 151/141/3 112/140/3 113/142/3 
f 113/142/3 150/143/3 151/141/3 
f 150/143/3 113/142/3 114/144/3 
f 114/144/3 149/145/3 150/143/3 
f 149/145/3 114/144/3 115/146/3 
f 115/146/3 148/147/3 149/145/3 
f 148/147/3 115/146/3 116/148/3 
f 116/148/3 147/149/3 148/147/3 
f 147/149/3 116/148/3 117/150/3 
f 117/150/3 146/151/3 147/149/3 
f 146/151/3 117/150/3 118/152/3 
f 118/152/3 145/153/3 146/151/3 
f 145/153/3 118/152/3 119/12/3 
f 119/12/3 144/11/3 145/153/3 
f 16/133/4 13/154/4 155/155/4 
f 155/155/4 109/134/3 16/133/4 
f 109/134/3 155/155/4 156/156/4 
f 156/156/4 110/136/3 109/134/3 
f 110/136/3 156/156/4 157/157/4 
f 157/157/4 111/138/3 110/136/3 
f 111/138/3 157/157/4 158/158/4 
f 158/158/4 112/140/3 111/138/3 
f 112/140/3 158/158/4 159/159/4 
f 159/159/4 113/142/3 112/140/3 
f 113/142/3 159/159/4 160/160/4 
f 160/160/4 114/144/3 113/142/3 
f 114/144/3 160/160/4 161/161/4 
f 161/161/4 115/146/3 114/144/3 
f 115/146/3 161/161/4 162/162/4 
f 162/162/4 116/148/3 115/146/3 
f 116/148/3 162/162/4 163/163/4 
f 163/163/4 117/150/3 116/148/3 
f 117/150/3 163/163/4 164/164/4 
f 164/164/4 118/152/3 117/150/3 
f 118/152/3 164/164/4 165/165/4 
f 165/165/4 119/12/3 118/152/3 
f 119/12/3 165/165/4 166/13/4 
f 166/13/4 120/9/3 119/12/3 
f 3/166/4 15/110/3 131/113/3 
f 131/113/3 177/167/4 3/166/4 
f 177/167/4 131/113/3 130/115/3 
f 130/115/3 176/168/4 177/167/4 
f 176/168/4 130/115/3 129/117/3 
f 129/117/3 175/169/4 176/168/4 
f 175/169/4 129/117/3 128/119/3 
f 128/119/3 174/170/4 175/169/4 
f 174/170/4 128/119/3 127/121/3 
f 127/121/3 173/171/4 174/170/4 
f 173/171/4 127/121/3 126/123/3 
f 126/123/3 172/172/4 173/171/4 
f 172/172/4 126/123/3 125/125/3 
f 125/125/3 171/173/4 172/172/4 
f 171/173/4 125/125/3 124/127/3 
f 124/127/3 170/174/4 171/173/4 
f 170/174/4 124/127/3 123/129/3 
f 123/129/3 169/175/4 170/174/4 
f 169/175/4 123/129/3 122/131/3 
f 122/131/3 168/176/4 169/175/4 
f 168/176/4 122/131/3 121/15/3 
f 121/15/3 167/14/4 168/176/4 
f 11/44/5 2/44/5 62/47/5 
f 62/47/5 200/177/5 11/44/5 
f 200/177/5 62/47/5 61/49/5 
f 61/49/5 199/178/5 200/177/5 
f 199/178/5 61/49/5 60/51/5 
f 60/51/5 198/179/5 199/178/5 
f 198/179/5 60/51/5 59/53/5 
f 59/53/5 197/180/5 198/179/5 
f 197/180/5 59/53/5 58/55/5 
f 58/55/5 196/181/5 197/180/5 
f 196/181/5 58/55/5 57/57/5 
f 57/57/5 195/182/5 196/181/5 
f 195/182/5 57/57/5 56/59/5 
f 56/59/5 194/183/5 195/182/5 
f 194/183/5 56/59/5 55/61/5 
f 55/61/5 193/184/5 194/183/5 
f 193/184/5 55/61/5 54/63/5 
f 54/63/5 192/185/5 193/184/5 
f 192/185/5 54/63/5 53/65/5 
f 53/65/5 191/186/5 192/185/5 
f 191/186/5 53/65/5 52/3/5 
f 52/3/5 190/187/5 191/186/5 
f 190/187/5 52/3/5 51/2/5 
f 51/2/5 189/16/5 190/187/5 
f 7/9/5 9/188/5 178/189/5 
f 178/189/5 40/23/5 7/9/5 
f 40/23/5 178/189/5 179/190/5 
f 179/190/5 41/25/5 40/23/5 
f 41/25/5 179/190/5 180/191/5 
f 180/191/5 42/27/5 41/25/5 
f 42/27/5 180/191/5 181/192/5 
f 181/192/5 43/29/5 42/27/5 
f 43/29/5 181/192/5 182/193/5 
f 182/193/5 44/31/5 43/29/5 
f 44/31/5 182/193/5 183/194/5 
f 183/194/5 45/33/5 44/31/5 
f 45/33/5 183/194/5 184/195/5 
f 184/195/5 46/35/5 45/33/5 
f 46/35/5 184/195/5 185/196/5 
f 185/196/5 47/37/5 46/35/5 
f 47/37/5 185/196/5 186/197/5 
f 186/197/5 48/39/5 47/37/5 
f 48/39/5 186/197/5 187/198/5 
f 187/198/5 49/41/5 48/39/5 
f 49/41/5 187/198/5 188/18/5 
f 188/18/5 50/17/5 49/41/5 
f 1/89/6 12/89/6 201/199/6 
f 201/199/6 63/90/6 1/89/6 
f 63/90/6 201/199/6 202/200/6 
f 202/200/6 64/92/6 63/90/6 
f 64/92/6 202/200/6 203/201/6 
f 203/201/6 65/94/6 64/92/6 
f 65/94/6 203/201/6 204/202/6 
f 204/202/6 66/96/6 65/94/6 
f 66/96/6 204/202/6 205/203/6 
f 205/203/6 67/98/6 66/96/6 
f 67/98/6 205/203/6 206/204/6 
f 206/204/6 68/100/6 67/98/6 
f 68/100/6 206/204/6 207/205/6 
f 207/205/6 69/102/6 68/100/6 
f 69/102/6 207/205/6 208/206/6 
f 208/206/6 70/104/6 69/102/6 
f 70/104/6 208/206/6 209/207/6 
f 209/207/6 71/106/6 70/104/6 
f 71/106/6 209/207/6 210/208/6 
f 210/208/6 72/108/6 71/106/6 
f 72/108/6 210/208/6 211/209/6 
f 211/209/6 73/8/6 72/108/6 
f 73/8/6 211/209/6 212/19/6 
f 212/19/6 74/5/6 73/8/6 
f 10/210/6 8/9/6 85/68/6 
f 85/68/6 223/211/6 10/210/6 
f 223/211/6 85/68/6 84/70/6 
f 84/70/6 222/212/6 223/211/6 
f 222/212/6 84/70/6 83/72/6 
f 83/72/6 221/213/6 222/212/6 
f 221/213/6 83/72/6 82/74/6 
f 82/74/6 220/214/6 221/213/6 
f 220/214/6 82/74/6 81/76/6 
f 81/76/6 219/215/6 220/214/6 
f 219/215/6 81/76/6 80/78/6 
f 80/78/6 218/216/6 219/215/6 
f 218/216/6 80/78/6 79/80/6 
f 79/80/6 217/217/6 218/216/6 
f 217/217/6 79/80/6 78/82/6 
f 78/82/6 216/218/6 217/217/6 
f 216/218/6 78/82/6 77/84/6 
f 77/84/6 215/219/6 216/218/6 
f 215/219/6 77/84/6 76/86/6 
f 76/86/6 214/220/6 215/219/6 
f 214/220/6 76/86/6 75/21/6 
f 75/21/6 213/20/6 214/220/6 
f 13/154/7 4/154/7 39/155/7 
f 39/155/7 155/155/7 13/154/7 
f 155/155/7 39/155/7 38/156/7 
f 38/156/7 156/156/7 155/155/7 
f 156/156/7 38/156/7 37/157/7 
f 37/157/7 157/157/7 156/156/7 
f 157/157/7 37/157/7 36/158/7 
f 36/158/7 158/158/7 157/157/7 
f 158/158/7 36/158/7 35/159/7 
f 35/159/7 159/159/7 158/158/7 
f 159/159/7 35/159/7 34/160/7 
f 34/160/7 160/160/7 159/159/7 
f 160/160/7 34/160/7 33/161/7 
f 33/161/7 161/161/7 160/160/7 
f 161/161/7 33/161/7 32/162/7 
f 32/162/7 162/162/7 161/161/7 
f 162/162/7 32/162/7 31/163/7 
f 31/163/7 163/163/7 162/162/7 
f 163/163/7 31/163/7 30/164/7 
f 30/164/7 164/164/7 163/163/7 
f 164/164/7 30/164/7 29/165/7 
f 29/165/7 165/165/7 164/164/7 
f 165/165/7 29/165/7 28/13/7 
f 28/13/7 166/13/7 165/165/7 
f 17/167/7 3/166/7 177/167/7 
f 17/167/7 177/167/7 176/168/7 
f 176/168/7 18/168/7 17/167/7 
f 18/168/7 176/168/7 175/169/7 
f 175/169/7 19/169/7 18/168/7 
f 19/169/7 175/169/7 174/170/7 
f 174/170/7 20/170/7 19/169/7 
f 20/170/7 174/170/7 173/171/7 
f 173/171/7 21/171/7 20/170/7 
f 21/171/7 173/171/7 172/172/7 
f 172/172/7 22/172/7 21/171/7 
f 22/172/7 172/172/7 171/173/7 
f 171/173/7 23/173/7 22/172/7 
f 23/173/7 171/173/7 170/174/7 
f 170/174/7 24/174/7 23/173/7 
f 24/174/7 170/174/7 169/175/7 
f 169/175/7 25/175/7 24/174/7 
f 25/175/7 169/175/7 168/176/7 
f 168/176/7 26/176/7 25/175/7 
f 26/176/7 168/176/7 167/14/7 
f 167/14/7 27/14/7 26/176/7 
f 5/132/8 14/132/8 154/135/8 
f 154/135/8 86/135/8 5/132/8 
f 86/135/8 154/135/8 153/137/8 
f 153/137/8 87/137/8 86/135/8 
f 87/137/8 153/137/8 152/139/8 
f 152/139/8 88/139/8 87/137/8 
f 88/139/8 152/139/8 151/141/8 
f 151/141/8 89/141/8 88/139/8 
f 89/141/8 151/141/8 150/143/8 
f 150/143/8 90/143/8 89/141/8 
f 90/143/8 150/143/8 149/145/8 
f 149/145/8 91/145/8 90/143/8 
f 91/145/8 149/145/8 148/147/8 
f 148/147/8 92/147/8 91/145/8 
f 92/147/8 148/147/8 147/149/8 
f 147/149/8 93/149/8 92/147/8 
f 93/149/8 147/149/8 146/151/8 
f 146/151/8 94/151/8 93/149/8 
f 94/151/8 146/151/8 145/153/8 
f 145/153/8 95/153/8 94/151/8 
f 95/153/8 145/153/8 144/11/8 
f 144/11/8 96/11/8 95/153/8 
f 96/11/8 144/11/8 143/10/8 
f 143/10/8 97/10/8 96/11/8 
f 132/112/8 6/111/8 108/112/8 
f 132/112/8 108/112/8 107/114/8 
f 107/114/8 133/114/8 132/112/8 
f 133/114/8 107/114/8 106/116/8 
f 106/116/8 134/116/8 133/114/8 
f 134/116/8 106/116/8 105/118/8 
f 105/118/8 135/118/8 134/116/8 
f 135/118/8 105/118/8 104/120/8 
f 104/120/8 136/120/8 135/118/8 
f 136/120/8 104/120/8 103/122/8 
f 103/122/8 137/122/8 136/120/8 
f 137/122/8 103/122/8 102/124/8 
f 102/124/8 138/124/8 137/122/8 
f 138/124/8 102/124/8 101/126/8 
f 101/126/8 139/126/8 138/124/8 
f 139/126/8 101/126/8 100/128/8 
f 100/128/8 140/128/8 139/126/8 
f 140/128/8 100/128/8 99/130/8 
f 99/130/8 141/130/8 140/128/8 
f 141/130/8 99/130/8 98/22/8 
f 98/22/8 142/22/8 141/130/8 
# 382 faces

