# 3ds Max Wavefront OBJ Exporter v0.97b - (c)2007 guruware
# File Created: 22.08.2015 02:50:07

mtllib 6lsegwithskirt.mtl

#
# object _001
#

#
# object Plane005
#

v  -16.00000 -0.00000 32.00000
v  16.00000 -0.00000 32.00000
v  -16.00000 0.00000 -32.00000
v  16.00000 0.00000 -32.00000
v  10.99986 0.00000 -32.00000
v  11.00000 -0.00000 32.00000
v  -11.00000 -0.00000 32.00000
v  -11.00000 0.00000 -32.00000
v  0.00000 0.00000 -32.00000
v  0.00000 0.00000 32.00000
v  -17.00000 -1.05500 -32.00000
v  -17.00000 -1.05500 32.00000
v  17.00000 -1.05500 32.00000
v  17.00000 -1.05500 -32.00000
v  -11.00000 -0.00000 29.21739
v  -11.00000 -0.00000 26.43478
v  -11.00000 -0.00000 23.65217
v  -11.00000 -0.00000 20.86957
v  -11.00000 -0.00000 18.08696
v  -11.00000 -0.00000 15.30435
v  -11.00000 -0.00000 12.52174
v  -11.00000 -0.00000 9.73913
v  -11.00000 -0.00000 6.95652
v  -11.00000 -0.00000 4.17391
v  -11.00000 -0.00000 1.39130
v  -11.00000 -0.00000 -1.39130
v  -11.00000 -0.00000 -4.17391
v  -11.00000 -0.00000 -6.95652
v  -11.00000 -0.00000 -9.73913
v  -11.00000 -0.00000 -12.52174
v  -11.00000 -0.00000 -15.30435
v  -11.00000 -0.00000 -18.08696
v  -11.00000 -0.00000 -20.86956
v  -11.00000 -0.00000 -23.65218
v  -11.00000 -0.00000 -26.43478
v  -11.00000 -0.00000 -29.21739
v  -16.00000 -0.00000 -29.21739
v  -16.00000 -0.00000 -26.43478
v  -16.00000 -0.00000 -23.65217
v  -16.00000 -0.00000 -20.86957
v  -16.00000 -0.00000 -18.08696
v  -16.00000 -0.00000 -15.30435
v  -16.00000 -0.00000 -12.52174
v  -16.00000 -0.00000 -9.73913
v  -16.00000 -0.00000 -6.95652
v  -16.00000 -0.00000 -4.17391
v  -16.00000 -0.00000 -1.39130
v  -16.00000 -0.00000 1.39130
v  -16.00000 -0.00000 4.17391
v  -16.00000 -0.00000 6.95652
v  -16.00000 -0.00000 9.73913
v  -16.00000 -0.00000 12.52174
v  -16.00000 -0.00000 15.30435
v  -16.00000 -0.00000 18.08696
v  -16.00000 -0.00000 20.86956
v  -16.00000 -0.00000 23.65218
v  -16.00000 -0.00000 26.43478
v  -16.00000 -0.00000 29.21739
v  16.00000 -0.00000 29.21739
v  16.00000 -0.00000 26.43478
v  16.00000 -0.00000 23.65217
v  16.00000 -0.00000 20.86957
v  16.00000 -0.00000 18.08696
v  16.00000 -0.00000 15.30435
v  16.00000 -0.00000 12.52174
v  16.00000 -0.00000 9.73913
v  16.00000 -0.00000 6.95652
v  16.00000 -0.00000 4.17391
v  16.00000 -0.00000 1.39130
v  16.00000 -0.00000 -1.39130
v  16.00000 -0.00000 -4.17391
v  16.00000 -0.00000 -6.95652
v  16.00000 -0.00000 -9.73913
v  16.00000 -0.00000 -12.52174
v  16.00000 -0.00000 -15.30435
v  16.00000 -0.00000 -18.08696
v  16.00000 -0.00000 -20.86956
v  16.00000 -0.00000 -23.65218
v  16.00000 -0.00000 -26.43478
v  16.00000 0.00000 -29.21739
v  10.99986 -0.00000 -29.21739
v  10.99987 -0.00000 -26.43478
v  10.99988 -0.00000 -23.65217
v  10.99988 -0.00000 -20.86957
v  10.99989 -0.00000 -18.08696
v  10.99990 -0.00000 -15.30435
v  10.99990 -0.00000 -12.52174
v  10.99991 -0.00000 -9.73913
v  10.99991 -0.00000 -6.95652
v  10.99992 -0.00000 -4.17391
v  10.99993 -0.00000 -1.39130
v  10.99993 -0.00000 1.39130
v  10.99994 -0.00000 4.17391
v  10.99994 -0.00000 6.95652
v  10.99995 -0.00000 9.73913
v  10.99996 -0.00000 12.52174
v  10.99996 -0.00000 15.30435
v  10.99997 -0.00000 18.08696
v  10.99998 -0.00000 20.86956
v  10.99998 -0.00000 23.65218
v  10.99999 -0.00000 26.43478
v  10.99999 -0.00000 29.21739
v  0.00000 0.00000 -29.21739
v  0.00000 0.00000 -26.43478
v  0.00000 0.00000 -23.65217
v  0.00000 0.00000 -20.86957
v  0.00000 0.00000 -18.08696
v  0.00000 0.00000 -15.30435
v  0.00000 0.00000 -12.52174
v  0.00000 0.00000 -9.73913
v  0.00000 0.00000 -6.95652
v  0.00000 0.00000 -4.17391
v  0.00000 0.00000 -1.39130
v  0.00000 0.00000 1.39130
v  0.00000 0.00000 4.17391
v  0.00000 0.00000 6.95652
v  0.00000 0.00000 9.73913
v  0.00000 0.00000 12.52174
v  0.00000 0.00000 15.30435
v  0.00000 0.00000 18.08696
v  0.00000 0.00000 20.86956
v  0.00000 0.00000 23.65218
v  0.00000 0.00000 26.43478
v  0.00000 0.00000 29.21739
v  -17.00000 -1.05500 -29.21739
v  -17.00000 -1.05500 -26.43478
v  -17.00000 -1.05500 -23.65217
v  -17.00000 -1.05500 -20.86957
v  -17.00000 -1.05500 -18.08696
v  -17.00000 -1.05500 -15.30435
v  -17.00000 -1.05500 -12.52174
v  -17.00000 -1.05500 -9.73913
v  -17.00000 -1.05500 -6.95652
v  -17.00000 -1.05500 -4.17391
v  -17.00000 -1.05500 -1.39130
v  -17.00000 -1.05500 1.39130
v  -17.00000 -1.05500 4.17391
v  -17.00000 -1.05500 6.95652
v  -17.00000 -1.05500 9.73913
v  -17.00000 -1.05500 12.52174
v  -17.00000 -1.05500 15.30435
v  -17.00000 -1.05500 18.08696
v  -17.00000 -1.05500 20.86956
v  -17.00000 -1.05500 23.65218
v  -17.00000 -1.05500 26.43478
v  -17.00000 -1.05500 29.21739
v  17.00000 -1.05500 29.21739
v  17.00000 -1.05500 26.43478
v  17.00000 -1.05500 23.65217
v  17.00000 -1.05500 20.86957
v  17.00000 -1.05500 18.08696
v  17.00000 -1.05500 15.30435
v  17.00000 -1.05500 12.52174
v  17.00000 -1.05500 9.73913
v  17.00000 -1.05500 6.95652
v  17.00000 -1.05500 4.17391
v  17.00000 -1.05500 1.39130
v  17.00000 -1.05500 -1.39130
v  17.00000 -1.05500 -4.17391
v  17.00000 -1.05500 -6.95652
v  17.00000 -1.05500 -9.73913
v  17.00000 -1.05500 -12.52174
v  17.00000 -1.05500 -15.30435
v  17.00000 -1.05500 -18.08696
v  17.00000 -1.05500 -20.86956
v  17.00000 -1.05500 -23.65218
v  17.00000 -1.05500 -26.43478
v  17.00000 -1.05500 -29.21739
# 168 vertices

vn -0.00000 1.00000 0.00000
vn -0.39501 0.91868 0.00000
vn 0.39501 0.91868 0.00000
vn 0.00000 1.00000 0.00000
vn -0.72577 0.68794 0.00000
vn 0.72577 0.68794 0.00000
# 6 vertex normals

vt 0.15625 0.52174 0.00000
vt 0.00000 0.52174 0.00000
vt 0.00000 0.47826 0.00000
vt 0.15625 0.47826 0.00000
vt 1.00000 0.52174 0.00000
vt 0.84375 0.52174 0.00000
vt 0.84375 0.47826 0.00000
vt 1.00000 0.47826 0.00000
vt 0.50000 0.52174 0.00000
vt 0.50000 0.47826 0.00000
vt 0.15625 1.00000 0.00000
vt 0.00000 1.00000 0.00000
vt 0.00000 0.95652 0.00000
vt 0.15625 0.95652 0.00000
vt 0.00000 0.91304 0.00000
vt 0.15625 0.91304 0.00000
vt 0.00000 0.86957 0.00000
vt 0.15625 0.86957 0.00000
vt 0.00000 0.82609 0.00000
vt 0.15625 0.82609 0.00000
vt 0.00000 0.78261 0.00000
vt 0.15625 0.78261 0.00000
vt 0.00000 0.73913 0.00000
vt 0.15625 0.73913 0.00000
vt 0.00000 0.69565 0.00000
vt 0.15625 0.69565 0.00000
vt 0.00000 0.65217 0.00000
vt 0.15625 0.65217 0.00000
vt 0.00000 0.60870 0.00000
vt 0.15625 0.60870 0.00000
vt 0.00000 0.56522 0.00000
vt 0.15625 0.56522 0.00000
vt 0.00000 0.00000 0.00000
vt 0.15625 0.00000 0.00000
vt 0.15625 0.04348 0.00000
vt 0.00000 0.04348 0.00000
vt 0.15625 0.08696 0.00000
vt 0.00000 0.08696 0.00000
vt 0.15625 0.13043 0.00000
vt 0.00000 0.13043 0.00000
vt 0.15625 0.17391 0.00000
vt 0.00000 0.17391 0.00000
vt 0.15625 0.21739 0.00000
vt 0.00000 0.21739 0.00000
vt 0.15625 0.26087 0.00000
vt 0.00000 0.26087 0.00000
vt 0.15625 0.30435 0.00000
vt 0.00000 0.30435 0.00000
vt 0.15625 0.34783 0.00000
vt 0.00000 0.34783 0.00000
vt 0.15625 0.39130 0.00000
vt 0.00000 0.39130 0.00000
vt 0.15625 0.43478 0.00000
vt 0.00000 0.43478 0.00000
vt 1.00000 1.00000 0.00000
vt 0.84375 1.00000 0.00000
vt 0.84375 0.95652 0.00000
vt 1.00000 0.95652 0.00000
vt 0.84375 0.91304 0.00000
vt 1.00000 0.91304 0.00000
vt 0.84375 0.86957 0.00000
vt 1.00000 0.86957 0.00000
vt 0.84375 0.82609 0.00000
vt 1.00000 0.82609 0.00000
vt 0.84375 0.78261 0.00000
vt 1.00000 0.78261 0.00000
vt 0.84375 0.73913 0.00000
vt 1.00000 0.73913 0.00000
vt 0.84375 0.69565 0.00000
vt 1.00000 0.69565 0.00000
vt 0.84375 0.65217 0.00000
vt 1.00000 0.65217 0.00000
vt 0.84375 0.60870 0.00000
vt 1.00000 0.60870 0.00000
vt 0.84375 0.56522 0.00000
vt 1.00000 0.56522 0.00000
vt 0.84375 0.00000 0.00000
vt 1.00000 0.00000 0.00000
vt 1.00000 0.04348 0.00000
vt 0.84375 0.04348 0.00000
vt 1.00000 0.08696 0.00000
vt 0.84375 0.08696 0.00000
vt 1.00000 0.13043 0.00000
vt 0.84375 0.13043 0.00000
vt 1.00000 0.17391 0.00000
vt 0.84375 0.17391 0.00000
vt 1.00000 0.21739 0.00000
vt 0.84375 0.21739 0.00000
vt 1.00000 0.26087 0.00000
vt 0.84375 0.26087 0.00000
vt 1.00000 0.30435 0.00000
vt 0.84375 0.30435 0.00000
vt 1.00000 0.34783 0.00000
vt 0.84375 0.34783 0.00000
vt 1.00000 0.39130 0.00000
vt 0.84375 0.39130 0.00000
vt 1.00000 0.43478 0.00000
vt 0.84375 0.43478 0.00000
vt 0.50000 1.00000 0.00000
vt 0.50000 0.95652 0.00000
vt 0.50000 0.91304 0.00000
vt 0.50000 0.86957 0.00000
vt 0.50000 0.82609 0.00000
vt 0.50000 0.78261 0.00000
vt 0.50000 0.73913 0.00000
vt 0.50000 0.69565 0.00000
vt 0.50000 0.65217 0.00000
vt 0.50000 0.60870 0.00000
vt 0.50000 0.56522 0.00000
vt 0.50000 0.00000 0.00000
vt 0.50000 0.04348 0.00000
vt 0.50000 0.08696 0.00000
vt 0.50000 0.13043 0.00000
vt 0.50000 0.17391 0.00000
vt 0.50000 0.21739 0.00000
vt 0.50000 0.26087 0.00000
vt 0.50000 0.30435 0.00000
vt 0.50000 0.34783 0.00000
vt 0.50000 0.39130 0.00000
vt 0.50000 0.43478 0.00000
# 120 texture coords

g Plane005
usemtl wire_154215229
f 26/1/1 47/2/2 48/3/2 
f 48/3/2 25/4/1 26/1/1 
f 70/5/3 91/6/4 92/7/4 
f 92/7/4 69/8/3 70/5/3 
f 91/6/4 113/9/1 114/10/1 
f 114/10/1 92/7/4 91/6/4 
f 113/9/1 26/1/1 25/4/1 
f 25/4/1 114/10/1 113/9/1 
f 47/2/2 135/2/5 136/3/5 
f 136/3/5 48/3/2 47/2/2 
f 69/8/3 157/8/6 158/5/6 
f 158/5/6 70/5/3 69/8/3 
f 8/11/4 3/12/2 37/13/2 
f 37/13/2 36/14/1 8/11/4 
f 36/14/1 37/13/2 38/15/2 
f 38/15/2 35/16/1 36/14/1 
f 35/16/1 38/15/2 39/17/2 
f 39/17/2 34/18/1 35/16/1 
f 34/18/1 39/17/2 40/19/2 
f 40/19/2 33/20/1 34/18/1 
f 33/20/1 40/19/2 41/21/2 
f 41/21/2 32/22/1 33/20/1 
f 32/22/1 41/21/2 42/23/2 
f 42/23/2 31/24/1 32/22/1 
f 31/24/1 42/23/2 43/25/2 
f 43/25/2 30/26/1 31/24/1 
f 30/26/1 43/25/2 44/27/2 
f 44/27/2 29/28/1 30/26/1 
f 29/28/1 44/27/2 45/29/2 
f 45/29/2 28/30/1 29/28/1 
f 28/30/1 45/29/2 46/31/2 
f 46/31/2 27/32/1 28/30/1 
f 27/32/1 46/31/2 47/2/2 
f 47/2/2 26/1/1 27/32/1 
f 1/33/2 7/34/1 15/35/1 
f 15/35/1 58/36/2 1/33/2 
f 58/36/2 15/35/1 16/37/1 
f 16/37/1 57/38/2 58/36/2 
f 57/38/2 16/37/1 17/39/1 
f 17/39/1 56/40/2 57/38/2 
f 56/40/2 17/39/1 18/41/1 
f 18/41/1 55/42/2 56/40/2 
f 55/42/2 18/41/1 19/43/1 
f 19/43/1 54/44/2 55/42/2 
f 54/44/2 19/43/1 20/45/1 
f 20/45/1 53/46/2 54/44/2 
f 53/46/2 20/45/1 21/47/1 
f 21/47/1 52/48/2 53/46/2 
f 52/48/2 21/47/1 22/49/1 
f 22/49/1 51/50/2 52/48/2 
f 51/50/2 22/49/1 23/51/1 
f 23/51/1 50/52/2 51/50/2 
f 50/52/2 23/51/1 24/53/1 
f 24/53/1 49/54/2 50/52/2 
f 49/54/2 24/53/1 25/4/1 
f 25/4/1 48/3/2 49/54/2 
f 4/55/3 5/56/1 81/57/1 
f 81/57/1 80/58/3 4/55/3 
f 80/58/3 81/57/1 82/59/4 
f 82/59/4 79/60/3 80/58/3 
f 79/60/3 82/59/4 83/61/4 
f 83/61/4 78/62/3 79/60/3 
f 78/62/3 83/61/4 84/63/4 
f 84/63/4 77/64/3 78/62/3 
f 77/64/3 84/63/4 85/65/4 
f 85/65/4 76/66/3 77/64/3 
f 76/66/3 85/65/4 86/67/4 
f 86/67/4 75/68/3 76/66/3 
f 75/68/3 86/67/4 87/69/4 
f 87/69/4 74/70/3 75/68/3 
f 74/70/3 87/69/4 88/71/4 
f 88/71/4 73/72/3 74/70/3 
f 73/72/3 88/71/4 89/73/4 
f 89/73/4 72/74/3 73/72/3 
f 72/74/3 89/73/4 90/75/4 
f 90/75/4 71/76/3 72/74/3 
f 71/76/3 90/75/4 91/6/4 
f 91/6/4 70/5/3 71/76/3 
f 6/77/4 2/78/3 59/79/3 
f 59/79/3 102/80/4 6/77/4 
f 102/80/4 59/79/3 60/81/3 
f 60/81/3 101/82/4 102/80/4 
f 101/82/4 60/81/3 61/83/3 
f 61/83/3 100/84/4 101/82/4 
f 100/84/4 61/83/3 62/85/3 
f 62/85/3 99/86/4 100/84/4 
f 99/86/4 62/85/3 63/87/3 
f 63/87/3 98/88/4 99/86/4 
f 98/88/4 63/87/3 64/89/3 
f 64/89/3 97/90/4 98/88/4 
f 97/90/4 64/89/3 65/91/3 
f 65/91/3 96/92/4 97/90/4 
f 96/92/4 65/91/3 66/93/3 
f 66/93/3 95/94/4 96/92/4 
f 95/94/4 66/93/3 67/95/3 
f 67/95/3 94/96/4 95/94/4 
f 94/96/4 67/95/3 68/97/3 
f 68/97/3 93/98/4 94/96/4 
f 93/98/4 68/97/3 69/8/3 
f 69/8/3 92/7/4 93/98/4 
f 5/56/1 9/99/1 103/100/1 
f 103/100/1 81/57/1 5/56/1 
f 81/57/1 103/100/1 104/101/1 
f 104/101/1 82/59/4 81/57/1 
f 82/59/4 104/101/1 105/102/1 
f 105/102/1 83/61/4 82/59/4 
f 83/61/4 105/102/1 106/103/1 
f 106/103/1 84/63/4 83/61/4 
f 84/63/4 106/103/1 107/104/1 
f 107/104/1 85/65/4 84/63/4 
f 85/65/4 107/104/1 108/105/1 
f 108/105/1 86/67/4 85/65/4 
f 86/67/4 108/105/1 109/106/1 
f 109/106/1 87/69/4 86/67/4 
f 87/69/4 109/106/1 110/107/1 
f 110/107/1 88/71/4 87/69/4 
f 88/71/4 110/107/1 111/108/1 
f 111/108/1 89/73/4 88/71/4 
f 89/73/4 111/108/1 112/109/1 
f 112/109/1 90/75/4 89/73/4 
f 90/75/4 112/109/1 113/9/1 
f 113/9/1 91/6/4 90/75/4 
f 10/110/1 6/77/4 102/80/4 
f 102/80/4 124/111/1 10/110/1 
f 124/111/1 102/80/4 101/82/4 
f 101/82/4 123/112/1 124/111/1 
f 123/112/1 101/82/4 100/84/4 
f 100/84/4 122/113/1 123/112/1 
f 122/113/1 100/84/4 99/86/4 
f 99/86/4 121/114/1 122/113/1 
f 121/114/1 99/86/4 98/88/4 
f 98/88/4 120/115/1 121/114/1 
f 120/115/1 98/88/4 97/90/4 
f 97/90/4 119/116/1 120/115/1 
f 119/116/1 97/90/4 96/92/4 
f 96/92/4 118/117/1 119/116/1 
f 118/117/1 96/92/4 95/94/4 
f 95/94/4 117/118/1 118/117/1 
f 117/118/1 95/94/4 94/96/4 
f 94/96/4 116/119/1 117/118/1 
f 116/119/1 94/96/4 93/98/4 
f 93/98/4 115/120/1 116/119/1 
f 115/120/1 93/98/4 92/7/4 
f 92/7/4 114/10/1 115/120/1 
f 9/99/1 8/11/4 36/14/1 
f 36/14/1 103/100/1 9/99/1 
f 103/100/1 36/14/1 35/16/1 
f 35/16/1 104/101/1 103/100/1 
f 104/101/1 35/16/1 34/18/1 
f 34/18/1 105/102/1 104/101/1 
f 105/102/1 34/18/1 33/20/1 
f 33/20/1 106/103/1 105/102/1 
f 106/103/1 33/20/1 32/22/1 
f 32/22/1 107/104/1 106/103/1 
f 107/104/1 32/22/1 31/24/1 
f 31/24/1 108/105/1 107/104/1 
f 108/105/1 31/24/1 30/26/1 
f 30/26/1 109/106/1 108/105/1 
f 109/106/1 30/26/1 29/28/1 
f 29/28/1 110/107/1 109/106/1 
f 110/107/1 29/28/1 28/30/1 
f 28/30/1 111/108/1 110/107/1 
f 111/108/1 28/30/1 27/32/1 
f 27/32/1 112/109/1 111/108/1 
f 112/109/1 27/32/1 26/1/1 
f 26/1/1 113/9/1 112/109/1 
f 7/34/1 10/110/1 124/111/1 
f 124/111/1 15/35/1 7/34/1 
f 15/35/1 124/111/1 123/112/1 
f 123/112/1 16/37/1 15/35/1 
f 16/37/1 123/112/1 122/113/1 
f 122/113/1 17/39/1 16/37/1 
f 17/39/1 122/113/1 121/114/1 
f 121/114/1 18/41/1 17/39/1 
f 18/41/1 121/114/1 120/115/1 
f 120/115/1 19/43/1 18/41/1 
f 19/43/1 120/115/1 119/116/1 
f 119/116/1 20/45/1 19/43/1 
f 20/45/1 119/116/1 118/117/1 
f 118/117/1 21/47/1 20/45/1 
f 21/47/1 118/117/1 117/118/1 
f 117/118/1 22/49/1 21/47/1 
f 22/49/1 117/118/1 116/119/1 
f 116/119/1 23/51/1 22/49/1 
f 23/51/1 116/119/1 115/120/1 
f 115/120/1 24/53/1 23/51/1 
f 24/53/1 115/120/1 114/10/1 
f 114/10/1 25/4/1 24/53/1 
f 3/12/2 11/12/5 125/13/5 
f 125/13/5 37/13/2 3/12/2 
f 37/13/2 125/13/5 126/15/5 
f 126/15/5 38/15/2 37/13/2 
f 38/15/2 126/15/5 127/17/5 
f 127/17/5 39/17/2 38/15/2 
f 39/17/2 127/17/5 128/19/5 
f 128/19/5 40/19/2 39/17/2 
f 40/19/2 128/19/5 129/21/5 
f 129/21/5 41/21/2 40/19/2 
f 41/21/2 129/21/5 130/23/5 
f 130/23/5 42/23/2 41/21/2 
f 42/23/2 130/23/5 131/25/5 
f 131/25/5 43/25/2 42/23/2 
f 43/25/2 131/25/5 132/27/5 
f 132/27/5 44/27/2 43/25/2 
f 44/27/2 132/27/5 133/29/5 
f 133/29/5 45/29/2 44/27/2 
f 45/29/2 133/29/5 134/31/5 
f 134/31/5 46/31/2 45/29/2 
f 46/31/2 134/31/5 135/2/5 
f 135/2/5 47/2/2 46/31/2 
f 12/33/5 1/33/2 58/36/2 
f 58/36/2 146/36/5 12/33/5 
f 146/36/5 58/36/2 57/38/2 
f 57/38/2 145/38/5 146/36/5 
f 145/38/5 57/38/2 56/40/2 
f 56/40/2 144/40/5 145/38/5 
f 144/40/5 56/40/2 55/42/2 
f 55/42/2 143/42/5 144/40/5 
f 143/42/5 55/42/2 54/44/2 
f 54/44/2 142/44/5 143/42/5 
f 142/44/5 54/44/2 53/46/2 
f 53/46/2 141/46/5 142/44/5 
f 141/46/5 53/46/2 52/48/2 
f 52/48/2 140/48/5 141/46/5 
f 140/48/5 52/48/2 51/50/2 
f 51/50/2 139/50/5 140/48/5 
f 139/50/5 51/50/2 50/52/2 
f 50/52/2 138/52/5 139/50/5 
f 138/52/5 50/52/2 49/54/2 
f 49/54/2 137/54/5 138/52/5 
f 137/54/5 49/54/2 48/3/2 
f 48/3/2 136/3/5 137/54/5 
f 2/78/3 13/78/6 147/79/6 
f 147/79/6 59/79/3 2/78/3 
f 59/79/3 147/79/6 148/81/6 
f 148/81/6 60/81/3 59/79/3 
f 60/81/3 148/81/6 149/83/6 
f 149/83/6 61/83/3 60/81/3 
f 61/83/3 149/83/6 150/85/6 
f 150/85/6 62/85/3 61/83/3 
f 62/85/3 150/85/6 151/87/6 
f 151/87/6 63/87/3 62/85/3 
f 63/87/3 151/87/6 152/89/6 
f 152/89/6 64/89/3 63/87/3 
f 64/89/3 152/89/6 153/91/6 
f 153/91/6 65/91/3 64/89/3 
f 65/91/3 153/91/6 154/93/6 
f 154/93/6 66/93/3 65/91/3 
f 66/93/3 154/93/6 155/95/6 
f 155/95/6 67/95/3 66/93/3 
f 67/95/3 155/95/6 156/97/6 
f 156/97/6 68/97/3 67/95/3 
f 68/97/3 156/97/6 157/8/6 
f 157/8/6 69/8/3 68/97/3 
f 14/55/6 4/55/3 80/58/3 
f 80/58/3 168/58/6 14/55/6 
f 168/58/6 80/58/3 79/60/3 
f 79/60/3 167/60/6 168/58/6 
f 167/60/6 79/60/3 78/62/3 
f 78/62/3 166/62/6 167/60/6 
f 166/62/6 78/62/3 77/64/3 
f 77/64/3 165/64/6 166/62/6 
f 165/64/6 77/64/3 76/66/3 
f 76/66/3 164/66/6 165/64/6 
f 164/66/6 76/66/3 75/68/3 
f 75/68/3 163/68/6 164/66/6 
f 163/68/6 75/68/3 74/70/3 
f 74/70/3 162/70/6 163/68/6 
f 162/70/6 74/70/3 73/72/3 
f 73/72/3 161/72/6 162/70/6 
f 161/72/6 73/72/3 72/74/3 
f 72/74/3 160/74/6 161/72/6 
f 160/74/6 72/74/3 71/76/3 
f 71/76/3 159/76/6 160/74/6 
f 159/76/6 71/76/3 70/5/3 
f 70/5/3 158/5/6 159/76/6 
# 276 faces

