# 3ds Max Wavefront OBJ Exporter v0.97b - (c)2007 guruware
# File Created: 22.08.2015 22:22:47

mtllib 2L_HW_Segment_Ground.mtl

#
# object Plane001
#

v  -8.00000 0.00000 -32.00000
v  8.00000 0.00000 -32.00000
v  5.00000 -0.00000 -32.00000
v  5.00000 0.00000 32.00000
v  -5.00000 0.00000 32.00000
v  -5.00000 -0.00000 -32.00000
v  8.00000 0.00000 32.00000
v  -8.00000 0.00000 32.00000
v  0.00000 0.00000 -32.00000
v  0.00000 0.00000 32.00000
v  9.00000 -1.05500 32.00000
v  -9.00000 -1.05500 32.00000
v  9.00000 -1.05500 -32.00000
v  -9.00000 -1.05500 -32.00000
# 14 vertices

vn 0.00000 1.00000 -0.00000
vn -0.00000 1.00000 -0.00000
vn 0.72577 0.68794 0.00005
vn 0.72414 0.68966 -0.00000
vn -0.72414 0.68965 -0.00000
vn -0.72577 0.68793 0.00005
# 6 vertex normals

vt 0.73438 0.87500 0.00000
vt 0.50000 0.50000 0.00000
vt 1.00000 1.00000 0.00000
vt 0.18750 1.00000 0.00000
vt 0.00000 1.00000 0.00000
vt 0.26563 0.87500 0.00000
vt 0.18750 0.00000 0.00000
vt 0.50000 0.00000 0.00000
vt 0.50000 1.00000 0.00000
vt 0.18750 0.75000 0.00000
vt 0.81250 0.00000 0.00000
vt 0.81250 0.75000 0.00000
vt 1.00000 0.00000 0.00000
vt 0.00000 0.00000 0.00000
# 14 texture coords

g Plane001
usemtl wire_115115115
f 3/1/1 4/2/1 7/2/1 
f 2/3/2 3/1/2 7/2/2 
f 6/4/1 1/5/1 8/2/1 
f 8/2/2 5/2/2 6/6/2 
f 5/7/1 10/8/1 9/9/1 
f 5/7/1 9/9/1 6/10/2 
f 9/9/1 10/8/1 4/11/2 
f 9/9/1 4/11/2 3/12/1 
f 7/2/3 11/13/3 13/3/3 
f 13/3/4 2/3/4 7/2/4 
f 8/2/5 1/5/5 14/5/5 
f 14/5/6 12/14/6 8/2/6 
# 12 faces

