# 3ds Max Wavefront OBJ Exporter v0.97b - (c)2007 guruware
# File Created: 27.08.2015 22:17:31

mtllib 4L_ow_17m_drvway.mtl

#
# object Plane001
#

v  -12.00000 0.00000 -32.00000
v  12.00000 0.00000 -32.00000
v  8.50000 -0.00000 -32.00000
v  8.50000 0.00000 32.00000
v  -8.50000 0.00000 32.00000
v  -8.50000 -0.00000 -32.00000
v  12.00000 0.00000 32.00000
v  -12.00000 0.00000 32.00000
v  12.50000 -1.05500 32.00000
v  -12.50000 -1.05500 32.00000
v  12.50000 -1.05500 -32.00000
v  -12.50000 -1.05500 -32.00000
v  8.50000 -0.30000 -32.00000
v  8.50000 -0.30000 32.00000
v  -8.50000 -0.30000 32.00000
v  -8.50000 -0.30000 -32.00000
v  0.00000 -0.30000 -32.00000
v  0.00000 -0.30000 32.00000
# 18 vertices

vn -0.00000 1.00000 -0.00000
vn 0.00000 1.00000 -0.00000
vn 0.90365 0.42827 -0.00000
vn -0.90365 0.42827 -0.00000
vn -1.00000 0.00000 -0.00000
vn 1.00000 0.00000 -0.00000
# 6 vertex normals

vt 0.50000 0.50000 0.00000
vt 1.00000 1.00000 0.00000
vt 0.73438 0.87500 0.00000
vt 0.68750 0.50000 0.00000
vt 0.18750 1.00000 0.00000
vt 0.00000 1.00000 0.00000
vt 0.50000 1.00000 0.00000
vt 0.18750 0.75000 0.00000
vt 0.18750 0.00000 0.00000
vt 0.50000 0.00000 0.00000
vt 0.81250 0.00000 0.00000
vt 0.81250 0.75000 0.00000
vt 1.00000 0.00000 0.00000
vt 0.00000 0.00000 0.00000
# 14 texture coords

g Plane001
usemtl wire_115115115
f 7/1/1 2/2/1 3/3/1 
f 3/3/2 4/1/2 7/1/2 
f 8/1/1 5/4/1 6/5/1 
f 6/5/2 1/6/2 8/1/2 
f 17/7/1 16/8/1 15/9/2 
f 15/9/2 18/10/2 17/7/1 
f 14/11/1 13/12/2 17/7/1 
f 17/7/1 18/10/2 14/11/1 
f 11/2/3 2/2/3 7/1/3 
f 7/1/3 9/13/3 11/2/3 
f 12/6/4 10/14/4 8/1/4 
f 8/1/4 1/6/4 12/6/4 
f 13/12/5 14/11/5 4/11/5 
f 4/11/5 3/12/5 13/12/5 
f 15/9/6 16/8/6 6/8/6 
f 6/8/6 5/9/6 15/9/6 
# 16 faces

